<svg xmlns="http://www.w3.org/2000/svg" width="512" height="512" style="shape-rendering:geometricPrecision;text-rendering:geometricPrecision;image-rendering:optimizeQuality;fill-rule:evenodd;clip-rule:evenodd"><path style="opacity:1" fill="#32cef9" d="M-.5-.5h93a155 155 0 0 0-10 22 426 426 0 0 0 45 12 261 261 0 0 1-12 26q23.953 5.462 48 11a92 92 0 0 1-5 11.5q-4.405.542-8.5-1.5l-4 4-1.5-1 5-8a3.65 3.65 0 0 0-1-1.5 636 636 0 0 1-45-8.5l-4 1q-4.05 8.735-8 17a430 430 0 0 1-18-4 922 922 0 0 1-22 46q5.4 1.445 11 2a237 237 0 0 0-8 19q7.052.686 14 2-5.09 14.178-13.5 27l-15.5 31a203 203 0 0 0 29 7.5q1.255 1.517 1 3.5a238 238 0 0 0-13-2.5 157 157 0 0 0-5.5 10.5q-2.355.933-5 1a825 825 0 0 1-38-11l-2.5 1a86 86 0 0 1-6 11z"/><path style="opacity:1" fill="#fcfdfd" d="M92.5-.5h15q.166.926 1 1.5a34.5 34.5 0 0 0 11 2.5q-.1-2.188 1-4h148a453 453 0 0 0-17 33q-8.273-1.413-17 0a508 508 0 0 0-25 50 32 32 0 0 1-8.5-1 54 54 0 0 1-5.5 2 101 101 0 0 1-14.5-4 3.94 3.94 0 0 0-2 1 58 58 0 0 1-2.5 8 315 315 0 0 0 31 7.5q5.706 4.29 13 4a3.94 3.94 0 0 1 1 2 1773 1773 0 0 1-26 50q-8.647.56-16-4a37.8 37.8 0 0 1-12-2.5q-3.274 1.848-6.5 0-2.407.901-4 3a25.8 25.8 0 0 1-3.5 7.5q1.316 2.8 4.5 3.5.724 1.422.5 3h4a957 957 0 0 1-13 29q10.125 2.016 20 4v4a153 153 0 0 0-23-3.5l-4 6a60 60 0 0 0-6 .5 6386 6386 0 0 1-11 18h-5a82.5 82.5 0 0 0-20-4.5A1870 1870 0 0 0 82 252.5q-4.976 5.701-6.5 13a170 170 0 0 0 1 26 43 43 0 0 0 15 3q6.003 3.165 13 4v17a25 25 0 0 1-7-.5 243.4 243.4 0 0 0-39-9.5 595 595 0 0 0-30-9q3.585-10.356 10.5-19a8.44 8.44 0 0 0 .5-4 49.3 49.3 0 0 1-11-2v-4a195 195 0 0 1-29-4v-36a86 86 0 0 0 6-11l2.5-1a825 825 0 0 0 38 11 14.4 14.4 0 0 0 5-1 157 157 0 0 1 5.5-10.5 238 238 0 0 1 13 2.5q.255-1.983-1-3.5a203 203 0 0 1-29-7.5l15.5-31q8.41-12.822 13.5-27a157 157 0 0 0-14-2 237 237 0 0 1 8-19 69 69 0 0 1-11-2 922 922 0 0 0 22-46 430 430 0 0 0 18 4q3.95-8.265 8-17l4-1a636 636 0 0 0 45 8.5q.686.621 1 1.5l-5 8 1.5 1 4-4q4.095 2.042 8.5 1.5a92 92 0 0 0 5-11.5 22725 22725 0 0 0-48-11 261 261 0 0 0 12-26 426 426 0 0 1-45-12 155 155 0 0 1 10-22"/><path style="opacity:1" fill="#46cbed" d="M107.5-.5h13q-1.1 1.812-1 4a34.5 34.5 0 0 1-11-2.5q-.834-.574-1-1.5"/><path style="opacity:1" fill="#67d6fb" d="M268.5-.5h151q-3.727 4.664-4 11-.926.165-1.5 1-1.237 14.265.5 28 7.508 5.162 17 5a2354 2354 0 0 1 58 15q6.174 2.47 13 4a143.6 143.6 0 0 0 25 6q.436 1.725 2.5 2a67.8 67.8 0 0 0 13.5 2 561 561 0 0 0 29 7 163.4 163.4 0 0 0 28 8 597 597 0 0 0 44 11 817 817 0 0 0 61 15.5 155.6 155.6 0 0 1 26 8 150 150 0 0 1 29 6.5 250 250 0 0 1 21 5q19.281 7.078 40 10 3.136 2.048 7 2a39 39 0 0 0 5 2.5 227 227 0 0 1 25 6q3.97.746 8 .5a8.4 8.4 0 0 1 .5-4 1561 1561 0 0 0 20-36 55 55 0 0 0 3.5-9q-12.609-3.018-25-6 .49-14.771-1-29h-1a353 353 0 0 0-20-6 154 154 0 0 1-19-5 2105 2105 0 0 0-52-13 1124 1124 0 0 0-50-12 559 559 0 0 0-32-9 1551 1551 0 0 1-67-18q-14.246-4.746-29.5-7-2.064-.275-2.5-2h107a2649 2649 0 0 1 24 7.5 308 308 0 0 0 17 3.5q8.9 2.494 18 5h3a4647 4647 0 0 0 103 27q8.758 4.563 19 5a162.7 162.7 0 0 0 27 6 458 458 0 0 0 50 13q4.507 2.666 10 3 1.27 2.2 4 2.5a232 232 0 0 1 31 6.5q4.83-11.155 10.5-22c2.36-4.74 5.19-9.074 8.5-13v180c-9.75-.68-19.41-2.347-29-5l-3-2q-6.617-2.445-14-3-2.48-1.949-4.5 1a110.8 110.8 0 0 0-10.5 22 316 316 0 0 1-11 21q-2.2 1.27-2.5 4-1 15 0 30 3.452 2.05 7.5 2a140 140 0 0 0 13 3 2714 2714 0 0 0 54 14v242a375784 375784 0 0 0-141.5-36q-2.064-.276-2.5-2l7-12a41.7 41.7 0 0 0 9 1 142.6 142.6 0 0 0 32 9 39 39 0 0 0 5 2.5 67.7 67.7 0 0 1 14 2.5q5.969 2.923 13 3 3.608 1.902 8 2 10.948 3.24 22 6.5 2.639 1.197 5-.5a554 554 0 0 1 23.5-45c.49-1.293.66-2.627.5-4a143.5 143.5 0 0 0-25-5v-27q-1.008-3.252-4.5-4a389 389 0 0 0-13.5-3 292 292 0 0 0-40-10l-8-3q-10.143-5.538-22-6 .942-16.137-2-31.5a34358 34358 0 0 1-131-34.5 172 172 0 0 1 14-27 805 805 0 0 0-20.5-6 3.94 3.94 0 0 0-2 1 20.7 20.7 0 0 0-3.5-4q.49-14.272-1-28a58.8 58.8 0 0 0-18-4q-7.97-3.753-17-4-11.556-4.396-24-7-6.003-3.165-13-4a278 278 0 0 1-32-8q-18.02-5.628-37-9a184 184 0 0 0-21-6q-3.348-2.543-8-3.5 2.103-2.014-1-2.5a55 55 0 0 1-4.5 1 61.5 61.5 0 0 0-16.5-3 18367 18367 0 0 0-118-30 140 140 0 0 1-21-5q-6.003-3.165-13-4-3.181.262-6-1-8.916-4.106-19-5h-1a354 354 0 0 0-35-9q-10.018-4.251-21-3a413 413 0 0 1-19.5 37 8.4 8.4 0 0 0-.5 4 1973 1973 0 0 1-6 10 3638 3638 0 0 1-138-36v-4a12404 12404 0 0 0-20-4 957 957 0 0 0 13-29h-4a4.93 4.93 0 0 0-.5-3q-3.184-.7-4.5-3.5a25.8 25.8 0 0 0 3.5-7.5q1.593-2.099 4-3 3.226 1.848 6.5 0a37.8 37.8 0 0 0 12 2.5q7.353 4.56 16 4a1773 1773 0 0 0 26-50 3.94 3.94 0 0 0-1-2q-7.294.29-13-4a315 315 0 0 1-31-7.5 58 58 0 0 0 2.5-8 3.94 3.94 0 0 1 2-1 101 101 0 0 0 14.5 4 54 54 0 0 0 5.5-2 32 32 0 0 0 8.5 1 508 508 0 0 1 25-50q8.727-1.413 17 0a453 453 0 0 1 17-33"/><path style="opacity:1" fill="#954b4f" d="M811.5-.5h169a295 295 0 0 0-9 17q.21-2.435-2-3.5a892 892 0 0 0-48-12.5q-4.166 3.195-6.5 8-2.052 2.24-.5 4.5a523 523 0 0 1 34 9 186 186 0 0 0 19 2.5l-7 14h-1a5041 5041 0 0 0-139-35q-4.406-2.62-9-4"/><path style="opacity:1" fill="#af6d6b" d="M980.5-.5h19a676 676 0 0 1-22 44 85 85 0 0 1-17-5l7-14 4-8a295 295 0 0 1 9-17"/><path style="opacity:1" fill="#69d7fb" d="M1004.5-.5h19v27l-19-4z"/><path style="opacity:1" fill="#8d626c" d="M586.5-.5h5q.436 1.725 2.5 2 15.254 2.254 29.5 7a187 187 0 0 0-24-3.5 39.6 39.6 0 0 0-11-3q-1.321-1.062-2-2.5"/><path style="opacity:1" fill="#85383c" d="m971.5 16.5-4 8a186 186 0 0 1-19-2.5 523 523 0 0 0-34-9q-1.552-2.26.5-4.5 2.334-4.805 6.5-8a892 892 0 0 1 48 12.5q2.21 1.065 2 3.5"/><path style="opacity:1" fill="#62424d" d="M698.5-.5h10q8.365 2.053 16 6.5a458 458 0 0 1 15 0l-5 1q3.144 1.105 5 3.5a308 308 0 0 1-17-3.5 2649 2649 0 0 0-24-7.5"/><path style="opacity:1" fill="#5e282a" d="M708.5-.5h43q3.703 1.225 8 1.5 2.452 2.622 6 3.5a6.85 6.85 0 0 0-1 4h3v3q-7.944 1.344 0 3.5-3.465.745-7 .5h-3q-7.94-5.74-18-5-1.856-2.395-5-3.5l5-1a458 458 0 0 0-15 0q-7.635-4.447-16-6.5"/><path style="opacity:1" fill="#ad6d6c" d="M419.5-.5h20a89.7 89.7 0 0 1-8 16l-16-3v-2q.273-6.336 4-11"/><path style="opacity:1" fill="#635567" d="M739.5 10.5q10.06-.74 18 5a4175 4175 0 0 1-18-5"/><path style="opacity:1" fill="#85383c" d="M491.5 31.5h-6q-.679-1.437-2-2.5a792 792 0 0 1-36-8.5v-1h3q1.694-6.383 6.5-11a159.6 159.6 0 0 0 33.5 8 81 81 0 0 0-5 12q3.576.765 6 3"/><path style="opacity:1" fill="#7e7b88" d="M415.5 10.5v2q-1.49 13.227-1 27-1.737-13.735-.5-28 .574-.835 1.5-1"/><path style="opacity:1" fill="#7b4d50" d="m415.5 12.5 16 3v26a8.44 8.44 0 0 0-4 .5q2.35.912 4 2.5-9.492.162-17-5-.49-13.773 1-27"/><path style="opacity:1" fill="#67343c" d="M751.5-.5h60q4.594 1.38 9 4a5041 5041 0 0 1 139 35v26a30.4 30.4 0 0 1 10-.5 55.6 55.6 0 0 1-10 2.5 458 458 0 0 1-50-13 45 45 0 0 0 14 .5 46.2 46.2 0 0 0 2-11.5 672 672 0 0 0-43-10.5 61 61 0 0 0-11-.5v8a272 272 0 0 1-11-.5l-1 1q2.35.912 4 2.5a4647 4647 0 0 1-103-27q3.535.245 7-.5-7.944-2.156 0-3.5v-3h-3a6.85 6.85 0 0 1 1-4q-3.548-.878-6-3.5-4.297-.275-8-1.5"/><path style="opacity:1" fill="#764e58" d="M998.5 31.5q-3.732 2.831-9 2a63.4 63.4 0 0 1 7.5-13q.265 5.784 1.5 11"/><path style="opacity:1" fill="#301e27" d="M999.5-.5h4c.17 7.674 0 15.34-.5 23a57 57 0 0 0-4.5 9q-1.235-5.216-1.5-11a63.4 63.4 0 0 0-7.5 13 778 778 0 0 0-4.5 7l-1 19a103 103 0 0 0-6.5 12q-.91-.186-1-1 1.49-13.227 1-27a676 676 0 0 0 22-44"/><path style="opacity:1" fill="#84373a" d="M690.5 26.5a559 559 0 0 1 32 9 112 112 0 0 0-5 10 200 200 0 0 1-14-1.5 98.5 98.5 0 0 0-21-6q-1.164-2.655.5-5.5a10.5 10.5 0 0 0 3.5-5q1.783-1.393 4-1"/><path style="opacity:1" fill="#5e272c" d="M447.5 20.5a792 792 0 0 0 36 8.5q1.321 1.063 2 2.5-1.838.978-2 3.5 2.89 4.561-2 6.5a428 428 0 0 1-32.5-8 214 214 0 0 0-1.5-13"/><path style="opacity:1" fill="#964b50" d="M439.5-.5h147q.679 1.438 2 2.5a39.6 39.6 0 0 1 11 3q12.154.975 24 3.5a1551 1551 0 0 0 67 18q-2.217-.393-4 1a10.5 10.5 0 0 1-3.5 5q-1.664 2.845-.5 5.5a98.5 98.5 0 0 1 21 6q6.984.999 14 1.5a112 112 0 0 1 5-10 1124 1124 0 0 1 50 12q.016 2.276 2 3.5-4.255 4.938-3 11A467 467 0 0 1 820 73.5q6.65-2.704 8.5-10-2.526-.975-4-3a154 154 0 0 0 19 5 44 44 0 0 0 3 2 448 448 0 0 0-13 25 1280 1280 0 0 0-18-6.5 267 267 0 0 1-33.5-8.5 3.94 3.94 0 0 0-2 1q-2.277 5.265-4.5 10.5l1 1.5a434 434 0 0 0 51 13l-6 13a5168 5168 0 0 1-141-37 67 67 0 0 1 4.5-10 6.3 6.3 0 0 1 3-1 7338 7338 0 0 0 66.5 16 7.9 7.9 0 0 0 3.5-1 43 43 0 0 1 4.5-9.5 3.94 3.94 0 0 0-1-2 958 958 0 0 1-68-16.5q-3.535 4.029-6 9a6.2 6.2 0 0 1-3.5 2 855 855 0 0 0-34.5-7 38.7 38.7 0 0 1-5 11 743 743 0 0 0-42-9.5 363.6 363.6 0 0 0-57-14.5 46 46 0 0 0-12-4.5 527 527 0 0 1-42-10.5q-2.424-2.235-6-3a81 81 0 0 1 5-12 159.6 159.6 0 0 1-33.5-8q-4.806 4.617-6.5 11h-3a84.7 84.7 0 0 1-16-3v-1a89.7 89.7 0 0 0 8-16"/><path style="opacity:1" fill="#85383c" d="M609.5 19.5a771 771 0 0 0 54 13q-3.255 5.532-5 12l-3.5 1a788 788 0 0 1-48.5-13q-3.63.723-5.5 4a42.8 42.8 0 0 1-3.5 8 54.6 54.6 0 0 0-17-3q2.47-6.953 5-14a67 67 0 0 0 18 3.5 37.9 37.9 0 0 0 6-11.5"/><path style="opacity:1" fill="#85383d" d="M514.5 9.5q16.81 4.465 34 8.5 1.526 1.575.5 3.5a35.2 35.2 0 0 0-5 10 214 214 0 0 0-34.5-9 153 153 0 0 1 5-13"/><path style="opacity:1" fill="#5d292d" d="M909.5 53.5a162.7 162.7 0 0 1-27-6q-9.108-3.359-19-5-1.65-1.588-4-2.5l1-1q5.413.357 11 .5v-8a61 61 0 0 1 11 .5 672 672 0 0 1 43 10.5 46.2 46.2 0 0 1-2 11.5q-7.04.846-14-.5"/><path style="opacity:1" fill="#794d51" d="M959.5 38.5h1a85 85 0 0 0 17 5q.49 13.773-1 27a52 52 0 0 1-7-1q-5.493-.334-10-3a55.6 55.6 0 0 0 10-2.5 30.4 30.4 0 0 0-10 .5z"/><path style="opacity:1" fill="#67839b" d="M863.5 42.5q9.892 1.641 19 5-10.242-.437-19-5"/><path style="opacity:1" fill="#1f88ca" d="M1003.5-.5h1v23l19 4v17c-3.31 3.926-6.14 8.26-8.5 13a334 334 0 0 0-10.5 22 232 232 0 0 0-31-6.5q-2.73-.3-4-2.5 3.459.74 7 1 .09.814 1 1a103 103 0 0 1 6.5-12l1-19a778 778 0 0 1 4.5-7q5.268.831 9-2a57 57 0 0 1 4.5-9c.5-7.66.67-15.326.5-23"/><path style="opacity:1" fill="#5e292d" d="M532.5 69.5h-5a143.6 143.6 0 0 1-25-6q-.837-1.935-3-2.5-4.991-.915-10-1.5a61 61 0 0 0-6-3.5l7-1a18.4 18.4 0 0 0-6-.5v-3q12.915-.018 1-3.5 24.791-.244 48.5 7.5a9.3 9.3 0 0 1 2.5 2q.652 6.168 3 11.5-3.465.745-7 .5"/><path style="opacity:1" fill="#85383c" d="M772.5 47.5a2105 2105 0 0 1 52 13q1.474 2.025 4 3-1.85 7.296-8.5 10A467 467 0 0 0 771.5 62q-1.255-6.062 3-11-1.984-1.224-2-3.5"/><path style="opacity:1" fill="#5c5b6a" d="M489.5 59.5q5.009.585 10 1.5 2.163.565 3 2.5-6.826-1.53-13-4"/><path style="opacity:1" fill="#84383c" d="M680.5 79.5h-1a1024 1024 0 0 1-33-8q-.513-1.257-2-1a38.7 38.7 0 0 0 5-11 855 855 0 0 1 34.5 7 6.2 6.2 0 0 0 3.5-2q2.465-4.971 6-9a958 958 0 0 0 68 16.5 3.94 3.94 0 0 1 1 2 43 43 0 0 0-4.5 9.5 7.9 7.9 0 0 1-3.5 1 7338 7338 0 0 1-66.5-16 6.3 6.3 0 0 0-3 1 67 67 0 0 0-4.5 10"/><path style="opacity:1" fill="#688399" d="M527.5 69.5h5a141 141 0 0 1 11 4 67.8 67.8 0 0 1-13.5-2q-2.064-.275-2.5-2"/><path style="opacity:1" fill="#5e282d" d="M625.5 92.5a410 410 0 0 0-25-4 163.4 163.4 0 0 1-28-8q-.166-.925-1-1.5 1.737-1.513 2-4-1.628-4.185 0-8.5a345 345 0 0 1 31 6.5l6 3a207 207 0 0 0 16 3.5 61.3 61.3 0 0 1-1 13"/><path style="opacity:1" fill="#5e272c" d="M646.5 71.5a1024 1024 0 0 0 33 8q.45 6.75 0 14a375 375 0 0 0-36-9v-13z"/><path style="opacity:1" fill="#86383c" d="M833.5 92.5q-1.86 6.225-6 11a434 434 0 0 1-51-13l-1-1.5q2.223-5.235 4.5-10.5a3.94 3.94 0 0 1 2-1 267 267 0 0 0 33.5 8.5 1280 1280 0 0 1 18 6.5"/><path style="opacity:1" fill="#68353d" d="M431.5 16.5a84.7 84.7 0 0 0 16 3v1a214 214 0 0 1 1.5 13 428 428 0 0 0 32.5 8q4.89-1.939 2-6.5.162-2.522 2-3.5h6a527 527 0 0 0 42 10.5 46 46 0 0 1 12 4.5 363.6 363.6 0 0 1 57 14.5 743 743 0 0 1 42 9.5q1.487-.257 2 1h-3v13a375 375 0 0 1 36 9q.45-7.25 0-14h1a5168 5168 0 0 0 141 37v28q-20.719-2.922-40-10a93 93 0 0 1 15 1.5 25.6 25.6 0 0 0-10-3.5v-3a19 19 0 0 0 8-1.5 41 41 0 0 0-9-.5q.951-5.96-4.5-8a3219 3219 0 0 1-48.5-13 55.2 55.2 0 0 0 1 14.5q6.287 2.701 13 2a3.65 3.65 0 0 1-1-1.5q4.011-1.923 7.5 1 4.761-1.815 9.5 0-4.183 1.296-7 4.5 2.987.56 5 2.5a150 150 0 0 0-29-6.5 155.6 155.6 0 0 0-26-8 817 817 0 0 1-61-15.5q-.837-1.935-3-2.5l3-1q-3.783-.748-7.5.5-4.226-.066-6.5-3.5a12.9 12.9 0 0 0-5-.5 61.3 61.3 0 0 0 1-13 207 207 0 0 1-16-3.5l-6-3a345 345 0 0 0-31-6.5q-1.628 4.315 0 8.5-.263 2.487-2 4 .834.575 1 1.5a561 561 0 0 1-29-7 141 141 0 0 0-11-4q3.535.245 7-.5-2.348-5.332-3-11.5a9.3 9.3 0 0 0-2.5-2q-23.709-7.744-48.5-7.5 11.915 3.482-1 3.5v3a18.4 18.4 0 0 1 6 .5l-7 1a61 61 0 0 1 6 3.5 2354 2354 0 0 0-58-15q-1.65-1.588-4-2.5a8.44 8.44 0 0 1 4-.5z"/><path style="opacity:1" fill="#2e1e27" d="M863.5 71.5h1q.25 14.01-.5 28a98 98 0 0 0-5.5 12 85 85 0 0 0-.5-13 111 111 0 0 1-7.5 13 786 786 0 0 0-4.5 7l-1 19q-2.035 5.097-5.5 9v-26a1668 1668 0 0 0 24-49"/><path style="opacity:1" fill="#654c59" d="M600.5 88.5a410 410 0 0 1 25 4q2.549-.24 5 .5 2.274 3.435 6.5 3.5 3.717-1.248 7.5-.5l-3 1q2.163.565 3 2.5a597 597 0 0 1-44-11"/><path style="opacity:1" fill="#764f59" d="M858.5 111.5h-8a111 111 0 0 0 7.5-13q.749 6.481.5 13"/><path style="opacity:1" fill="#af6d6c" d="M843.5 65.5a353 353 0 0 1 20 6 1668 1668 0 0 1-24 49 144 144 0 0 1-18-4l6-13q4.14-4.775 6-11a448 448 0 0 1 13-25 44 44 0 0 1-3-2"/><path style="opacity:1" fill="#2087ca" d="M864.5 71.5q1.49 14.229 1 29 12.391 2.982 25 6a55 55 0 0 1-3.5 9 1561 1561 0 0 1-20 36 8.4 8.4 0 0 0-.5 4 32.5 32.5 0 0 1-8-.5 227 227 0 0 0-25-6 39 39 0 0 1-5-2.5q4.542-.241 8.5 2 1.951-.208 2.5-2 3.465-3.903 5.5-9l1-19a786 786 0 0 1 4.5-7h8a98 98 0 0 1 5.5-12q.75-13.99.5-28"/><path style="opacity:1" fill="#5e282c" d="M781.5 134.5a250 250 0 0 0-21-5q-2.013-1.94-5-2.5 2.817-3.204 7-4.5-4.739-1.815-9.5 0-3.489-2.923-7.5-1a3.65 3.65 0 0 0 1 1.5q-6.713.701-13-2a55.2 55.2 0 0 1-1-14.5 3219 3219 0 0 0 48.5 13q5.451 2.04 4.5 8a41 41 0 0 1 9 .5 19 19 0 0 1-8 1.5v3a25.6 25.6 0 0 1 10 3.5 93 93 0 0 0-15-1.5"/><path style="opacity:1" fill="#794c50" d="M821.5 116.5a144 144 0 0 0 18 4v26q-.549 1.792-2.5 2-3.958-2.241-8.5-2-3.864.048-7-2z"/><path style="opacity:1" fill="#f2fbfb" d="M28.5 119.5q8.523-.16 16 4 1.625 1.297.5 3-3.015 4.047-6 8a45.7 45.7 0 0 1-14-4q.818-5.675 3.5-11"/><path style="opacity:1" fill="#45cbf0" d="M93.5 142.5q5.495.678 11 1.5 2.499 4.697-3 4.5a41.5 41.5 0 0 0-9-1q-.2-2.687 1-5"/><path style="opacity:1" fill="#ae6b6a" d="M354.5 187.5h-3a83 83 0 0 0-5 12q-3.406 3.168-4 8-9.34 12.68-14 28h-5a2480 2480 0 0 1-12-4q2.38-2.51 2-6a8.4 8.4 0 0 1 .5-4 413 413 0 0 0 19.5-37q10.982-1.251 21 3"/><path style="opacity:1" fill="#964c50" d="M354.5 187.5a354 354 0 0 1 35 9 18.5 18.5 0 0 0-6 .5 4.93 4.93 0 0 0 3 .5 4.93 4.93 0 0 1-.5 3 76 76 0 0 0-5 7 249 249 0 0 1-27.5-6q-3.29-.546-5.5-3-.574.834-1.5 1a83 83 0 0 1 5-12z"/><path style="opacity:1" fill="#020202" d="M169.5 199.5a3638 3638 0 0 0 138 36 2908 2908 0 0 0 81 21v10a17.7 17.7 0 0 0 6 .5q1.666-4.649 5.5-7.5a20805 20805 0 0 0 114.5 30 25.9 25.9 0 0 1 1 10q7.783 1.964 8.5-6a3.94 3.94 0 0 1 2-1 16781 16781 0 0 0 208.5 53q2.82-.645 6 0-.128 1.494 1 2.5a1046 1046 0 0 0 31 7.5 34358 34358 0 0 0 131 34.5q2.942 15.363 2 31.5v1q.25 23.505-.5 47a10.1 10.1 0 0 0-1.5 4 420 420 0 0 0-17 29l-7 12a58 58 0 0 0-5 9 62 62 0 0 0-7 1q-2.031 6.137-8 8a282 282 0 0 0-18 30.5q-2.5 1-5 0a1842 1842 0 0 0-58-14.5 840 840 0 0 1-.5 41 885 885 0 0 0-19.5 34 292 292 0 0 0-11.5 20q-3.313 3.31-7.5 1-3.264 4.545-6.5 9a9435 9435 0 0 0-65.5-17 215 215 0 0 0-28-7 193 193 0 0 0-21-6 191 191 0 0 0-19-4 44809 44809 0 0 0-368-96 1757 1757 0 0 1-2-118h-4l-112-28a25.9 25.9 0 0 0-1-10 46 46 0 0 1-7-3 601 601 0 0 1-1-49v-44a98.4 98.4 0 0 1 .5-14 1216 1216 0 0 0 20.5-37 6386 6386 0 0 0 11-18 60 60 0 0 1 6-.5l4-6a153 153 0 0 1 23 3.5"/><path style="opacity:1" fill="#835b67" d="M390.5 196.5q10.084.894 19 5a91 91 0 0 0-16-2.5 81 81 0 0 1-3-2.5"/><path style="opacity:1" fill="#817f8c" d="M415.5 202.5q6.997.835 13 4-6.997-.835-13-4"/><path style="opacity:1" fill="#85373b" d="M389.5 196.5h1a81 81 0 0 0 3 2.5 91 91 0 0 1 16 2.5q2.819 1.262 6 1 6.003 3.165 13 4a140 140 0 0 0 21 5q4.201 3.582 10 4.5-4.949 3.41-7 9-2.5 1-5 0a1202 1202 0 0 1-47-11.5q-5.317 4.322-7 11a79 79 0 0 1-15-2.5 950 950 0 0 0-38-10.5q1.695-1.683 2-4 .594-4.832 4-8 .926-.166 1.5-1 2.21 2.454 5.5 3a249 249 0 0 0 27.5 6 76 76 0 0 1 5-7 4.93 4.93 0 0 0 .5-3 4.93 4.93 0 0 1-3-.5 18.5 18.5 0 0 1 6-.5"/><path style="opacity:1" fill="#95a1b7" d="M977.5 213.5q7.383.555 14 3a172 172 0 0 1-12-1.5q-1.374-.417-2-1.5"/><path style="opacity:1" fill="#964b50" d="M342.5 207.5q-.305 2.317-2 4a950 950 0 0 1 38 10.5 79 79 0 0 0 15 2.5q1.683-6.678 7-11a1202 1202 0 0 0 47 11.5q2.5 1 5 0 2.051-5.59 7-9-5.799-.918-10-4.5a18367 18367 0 0 1 118 30q.166.925 1 1.5 9.952 1.116 19 4.5h-6l-4 11a2319 2319 0 0 0 32.5 8 6.3 6.3 0 0 0 3-1 72 72 0 0 1 5.5-10q18.98 3.372 37 9a60.3 60.3 0 0 0-14-1.5 1410 1410 0 0 1 29 8.5 59 59 0 0 0-5 9 352 352 0 0 0 50 13q2.411-.206 4-2 1.85-4.52 5-8 9.03.247 17 4a236 236 0 0 1-13 26q.128-1.494-1-2.5a938 938 0 0 0-51-12q-4.656 5.363-5 12.5l51 12a47.5 47.5 0 0 1-5 12 41 41 0 0 1-9-.5 55382 55382 0 0 0-32-8 82 82 0 0 1-11-5 303 303 0 0 1-54-13 356 356 0 0 1-29-6.5q-4.416-1.564-8-4 4.493-3.965 6-10a785 785 0 0 0-33-10 4.93 4.93 0 0 0-2.5 1 82 82 0 0 0-4.5 11h-3a16939 16939 0 0 1-157-40 67 67 0 0 1 5-11.5q-1.314-2.377-4-3a562 562 0 0 0-28-6.5q-7.259 2.98-8 11h-4q-8.878-3.465-18-5h5q4.66-15.32 14-28m652 11c9.59 2.653 19.25 4.32 29 5v14a193 193 0 0 1-24-4 23.4 23.4 0 0 1-7-3q-3.4-.153-7 1 2.085-4.975 4.5-10 1.362-2.909 4.5-3"/><path style="opacity:1" fill="#989dad" d="M977.5 213.5q-2.276.016-3.5 2a532 532 0 0 1-11.5 21 110.8 110.8 0 0 1 10.5-22q2.02-2.949 4.5-1"/><path style="opacity:1" fill="#ae6b6a" d="M120.5 220.5q-1.762-.329-3 1a1574 1574 0 0 1-25 47q-7.887-.8-15-4-1.025.544-2 1 1.524-7.299 6.5-13a1870 1870 0 0 1 18.5-36.5 82.5 82.5 0 0 1 20 4.5"/><path style="opacity:1" fill="#85383c" d="M380.5 250.5a350 350 0 0 0-39-10h4q.741-8.02 8-11a562 562 0 0 1 28 6.5q2.686.623 4 3a67 67 0 0 0-5 11.5"/><path style="opacity:1" fill="#8e474b" d="M120.5 220.5h5a1216 1216 0 0 1-20.5 37 98.4 98.4 0 0 0-.5 14q-6.273.27-12-2v-1a1574 1574 0 0 0 25-47q1.238-1.329 3-1"/><path style="opacity:1" fill="#85383c" d="M1023.5 237.5v15a426 426 0 0 0-43-10v-3l5-8q3.6-1.153 7-1a23.4 23.4 0 0 0 7 3 193 193 0 0 0 24 4m-613-7a286 286 0 0 1 34 8.5l1 1a253 253 0 0 1-5 10.5 205 205 0 0 1-35-8q.808-6.627 5-12"/><path style="opacity:1" fill="#7fb9d2" d="M567.5 241.5a61.5 61.5 0 0 1 16.5 3 55 55 0 0 0 4.5-1q3.103.486 1 2.5 4.652.957 8 3.5a54 54 0 0 1-10-2q-9.048-3.384-19-4.5-.834-.575-1-1.5"/><path style="opacity:1" fill="#86383d" d="M505.5 239.5a454 454 0 0 0 52 13 12.9 12.9 0 0 1-.5 5 22.1 22.1 0 0 0-4 7 4.93 4.93 0 0 1-2.5 1 2136 2136 0 0 1-49.5-12q-6.947 3.149-6.5 11a74.7 74.7 0 0 1-19-4q1.403-7.47 6.5-13 8.178 4.436 17.5 3.5 3.999-5.323 6-11.5"/><path style="opacity:1" fill="#964b50" d="M980.5 239.5v3a426 426 0 0 1 43 10v15a413 413 0 0 0-31-8 4.93 4.93 0 0 0-2.5 1 42.5 42.5 0 0 0-5.5 11q-8.982-1.992-18-4v-1a172.3 172.3 0 0 0 14-27"/><path style="opacity:1" fill="#ae6b6a" d="M977.5 213.5q.626 1.083 2 1.5 5.986.963 12 1.5l3 2q-3.138.091-4.5 3-2.415 5.025-4.5 10l-5 8a172.3 172.3 0 0 1-14 27q-8.463-.834-16-4a20.7 20.7 0 0 1 1-5 316 316 0 0 0 11-21 532 532 0 0 0 11.5-21q1.224-1.984 3.5-2"/><path style="opacity:1" fill="#84363a" d="M587.5 247.5a54 54 0 0 0 10 2 184 184 0 0 1 21 6 72 72 0 0 0-5.5 10 6.3 6.3 0 0 1-3 1 2319 2319 0 0 1-32.5-8l4-11z"/><path style="opacity:1" fill="#85383c" d="M1023.5 267.5v14h-4c-.11-.617-.44-1.117-1-1.5-11.12-1.674-21.783-4.174-32-7.5q-.513-1.258-2-1a42.5 42.5 0 0 1 5.5-11 4.93 4.93 0 0 1 2.5-1 413 413 0 0 1 31 8"/><path style="opacity:1" fill="#fcfcfc" d="M124.5 265.5a9871 9871 0 0 1 95 24v20a1324 1324 0 0 1-62.5-16 601 601 0 0 0 .5 60 1057 1057 0 0 0 62 16q.495 10.548-1 21a9505 9505 0 0 0-93-24.5q-1.434-5.091-1-10.5l-10-2q-.5-40.512 1-81a29.4 29.4 0 0 0 9 2z"/><path style="opacity:1" fill="#37cef7" d="M-.5 263.5a195 195 0 0 0 29 4v4a49.3 49.3 0 0 0 11 2 8.44 8.44 0 0 1-.5 4q-6.915 8.644-10.5 19a506 506 0 0 1-29-7z"/><path style="opacity:1" fill="#7a4e52" d="M92.5 268.5v1q.92 12.163-2 23.5.835.574 1 1.5a43 43 0 0 1-15-3 170 170 0 0 1-1-26q.975-.456 2-1 7.113 3.2 15 4"/><path style="opacity:1" fill="#7a4c50" d="M950.5 262.5q7.537 3.166 16 4v1q-.814.09-1 1a368 368 0 0 1 1.5 26q1.492.85 2.5 2a140 140 0 0 1-13-3 69 69 0 0 0-6.5-3q-1.236-14.264.5-28"/><path style="opacity:1" fill="#67353c" d="M966.5 267.5q9.018 2.008 18 4 1.487-.258 2 1-2.884 5.293-2 12c11.199 4.279 22.87 6.945 35 8v-11h4v29a2714 2714 0 0 1-54-14q-1.008-1.15-2.5-2a368 368 0 0 0-1.5-26q.186-.91 1-1"/><path style="opacity:1" fill="#67373f" d="M92.5 269.5q5.727 2.27 12 2v27q-6.997-.835-13-4-.165-.926-1-1.5 2.92-11.337 2-23.5"/><path style="opacity:1" fill="#836b7a" d="M687.5 272.5q6.997.835 13 4-6.997-.835-13-4"/><path style="opacity:1" fill="#7e8f9f" d="M951.5 257.5a20.7 20.7 0 0 0-1 5q-1.736 13.736-.5 28a69 69 0 0 1 6.5 3q-4.048.05-7.5-2-1-15 0-30 .3-2.73 2.5-4"/><path style="opacity:1" fill="#5e272c" d="M986.5 272.5c10.217 3.326 20.88 5.826 32 7.5.56.383.89.883 1 1.5v11c-12.13-1.055-23.801-3.721-35-8q-.884-6.707 2-12"/><path style="opacity:1" fill="#86373c" d="m587.5 275.5 22 4.5a1170 1170 0 0 0 43 12 29 29 0 0 0 5 2.5q-3.528 4.998-4 11a2522 2522 0 0 0-68-16.5q-2.115-.552-3-2.5a38.6 38.6 0 0 0 5-11"/><path style="opacity:1" fill="#85383c" d="M574.5 298.5q-19.08-2.254-37-8h3a82 82 0 0 1 4.5-11 4.93 4.93 0 0 1 2.5-1 785 785 0 0 1 33 10q-1.507 6.035-6 10"/><path style="opacity:1" fill="#85373b" d="M655.5 264.5a278 278 0 0 0 32 8q6.003 3.165 13 4 12.444 2.604 24 7-3.15 3.48-5 8-1.589 1.794-4 2a352 352 0 0 1-50-13 59 59 0 0 1 5-9 1410 1410 0 0 0-29-8.5 60.3 60.3 0 0 1 14 1.5"/><path style="opacity:1" fill="#66343a" d="M313.5 225.5q.38 3.49-2 6 6.048 2.033 12 4 9.122 1.535 18 5a350 350 0 0 1 39 10 16939 16939 0 0 0 157 40q17.92 5.746 37 8 3.584 2.436 8 4a356 356 0 0 0 29 6.5 303 303 0 0 0 54 13 82 82 0 0 0 11 5 55382 55382 0 0 1 32 8q4.473.747 9 .5.436 1.724 2.5 2a168 168 0 0 1 14.5 4v4a16781 16781 0 0 1-208.5-53 3.94 3.94 0 0 0-2 1q-.717 7.964-8.5 6a25.9 25.9 0 0 0-1-10 20805 20805 0 0 1-114.5-30q-3.834 2.851-5.5 7.5a17.7 17.7 0 0 1-6-.5v-10a2908 2908 0 0 1-81-21q2.958-4.897 6-10"/><path style="opacity:1" fill="#fcfcfc" d="M345.5 382.5a401 401 0 0 1-1 40 446 446 0 0 1-40-10 421 421 0 0 1-1-41 388 388 0 0 1-19-4q-.09-.814-1-1a401 401 0 0 0-1 40l-42-10v-101a9880 9880 0 0 0 95 24v11q4.651.288 9 2a226 226 0 0 1 1 30 82 82 0 0 1-10-2v20z"/><path style="opacity:1" fill="#4c5d76" d="M759.5 291.5q1.49 13.728 1 28-.231 3.705-3 6-.282-2.405 1.5-4 .75-13.491.5-27z"/><path style="opacity:1" fill="#434b60" d="M-.5 289.5a506 506 0 0 0 29 7 595 595 0 0 1 30 9q-1.144 1.152-3 1.5l1 1q-7.028 11.568-14 23 6.4 1.481 1 2.5a1552 1552 0 0 1-44-10z"/><path style="opacity:1" fill="#85383c" d="M728.5 313.5q-1.624 5.935-6 10l-51-12q.344-7.137 5-12.5 25.507 5.25 51 12 1.128 1.006 1 2.5"/><path style="opacity:1" fill="#2f1d26" d="M759.5 294.5q.25 13.509-.5 27-1.782 1.595-1.5 4a10.2 10.2 0 0 1-3 3q.434-4.724-1.5-9a95 95 0 0 0-6.5 12 1077 1077 0 0 0-5.5 9 12.9 12.9 0 0 0-.5 5q-3.18-.645-6 0v-4l20.5-41a34 34 0 0 0 4.5-6"/><path style="opacity:1" fill="#fbfbfc" d="M-.5 323.5a1552 1552 0 0 0 44 10q1.602 1.401 4 1 .1 2.188-1 4a1531 1531 0 0 0-30 57 120.5 120.5 0 0 1-17-4z"/><path style="opacity:1" fill="#af6c6b" d="M741.5 287.5a58.8 58.8 0 0 1 18 4v3a34 34 0 0 1-4.5 6l-20.5 41a168 168 0 0 0-14.5-4q-2.064-.276-2.5-2a47.5 47.5 0 0 0 5-12q4.376-4.065 6-10a236 236 0 0 0 13-26"/><path style="opacity:1" fill="#754b52" d="M754.5 328.5q.417 2.77-2 4a12 12 0 0 0-6-1 95 95 0 0 1 6.5-12q1.934 4.276 1.5 9"/><path style="opacity:1" fill="#090909" d="M282.5 326.5a480 480 0 0 0 21 5v20a480 480 0 0 1-21-5z"/><path style="opacity:1" fill="#fcfcfc" d="M368.5 419.5a1661 1661 0 0 1-1-81 82 82 0 0 0 10 2v-9a3862 3862 0 0 1 84 21q-.247 5.025.5 10a63 63 0 0 0 10.5 3v80a27 27 0 0 1-10-2 21.1 21.1 0 0 0-1 9 1842 1842 0 0 1-82-20.5q-2.33-4.825-3-10.5a35.2 35.2 0 0 0-8-2"/><path style="opacity:1" fill="#1e87ca" d="M760.5 319.5a20.7 20.7 0 0 1 3.5 4 3.94 3.94 0 0 1 2-1 805 805 0 0 1 20.5 6 172 172 0 0 0-14 27 1046 1046 0 0 1-31-7.5q-1.128-1.006-1-2.5a12.9 12.9 0 0 1 .5-5q2.808-4.644 5.5-9a12 12 0 0 1 6 1q2.417-1.23 2-4a10.2 10.2 0 0 0 3-3q2.769-2.295 3-6"/><path style="opacity:1" fill="#9a9a9a" d="M367.5 338.5q-.486 40.611 1 81-1.999-19.725-2-40.5 0-20.506 1-40.5"/><path style="opacity:1" fill="#090909" d="M409.5 359.5a480 480 0 0 0 21 5v60a167 167 0 0 1-20-5 901 901 0 0 1-1-60"/><path style="opacity:1" fill="#a19a5d" d="M56.5 362.5q4.921-.12 9 2-4.921.12-9-2"/><path style="opacity:1" fill="#fbfbfb" d="m588.5 476.5-2 9a9456 9456 0 0 0-93-23q-.495-10.548 1-21a1077 1077 0 0 0 62 16v-20a3072 3072 0 0 1-53-13v-11a29.4 29.4 0 0 1-9-2 401 401 0 0 1-1-40l10 2v-10a1980 1980 0 0 0 95 24q.495 10.548-1 21a2112 2112 0 0 0-62-16v20a3777 3777 0 0 0 53 13v11a82 82 0 0 1 10 2v40a54 54 0 0 1-10-2"/><path style="opacity:1" fill="#959156" d="M65.5 364.5q4.533.456 9 1.5.835.574 1 1.5-5.493-.335-10-3"/><path style="opacity:1" fill="#faf12f" d="M47.5 360.5q4.788-.143 9 2 4.079 2.12 9 2 4.507 2.665 10 3 2.398-.401 4 1 2.908 2.494 7 2v3a27.7 27.7 0 0 0-5 9 2058 2058 0 0 0-34-8z"/><path style="opacity:1" fill="#b6b447" d="M79.5 368.5q3.535-.245 7 .5 1.32 2.034 1 4.5h-1v-3q-4.092.494-7-2"/><path style="opacity:1" fill="#4f589f" d="M46.5 338.5q1.488 10.722 1 22v14l-4 7q-2.46-8.92-3-19a101.2 101.2 0 0 0-10 21 79 79 0 0 0-6.5 10q-.75 12.49-.5 25a75 75 0 0 1-3.5 10q-1.423 2.39-3.5 4v-37a1531 1531 0 0 1 30-57"/><path style="opacity:1" fill="#0f0e13" d="M43.5 381.5a274 274 0 0 0-14 28q-1.889 5.287-6 9-.25-12.51.5-25a79 79 0 0 1 6.5-10 101.2 101.2 0 0 1 10-21q.54 10.08 3 19"/><path style="opacity:1" fill="#636363" d="M345.5 382.5q1.989 20.259 0 41-.91-.186-1-1a401 401 0 0 0 1-40"/><path style="opacity:1" fill="#333" d="m284.5 367.5-2 39a401 401 0 0 1 1-40q.91.186 1 1"/><path style="opacity:1" fill="#af8e28" d="M47.5 374.5a2058 2058 0 0 1 34 8 395 395 0 0 1-21 41 12.9 12.9 0 0 0-.5-5q-4.03 4.255-4.5 10-3.619.384-5-3l-2 3a183 183 0 0 0-21-5v-4q2.436-.21 3.5 2 .74-2.451.5-5 3.593 1.294 7 0a11.4 11.4 0 0 0-2.5-2q-2.034 1.32-4.5 1a25 25 0 0 0-.5-7q-.575.834-1.5 1a274 274 0 0 1 14-28z"/><path style="opacity:1" fill="#fbfbfb" d="M632.5 397.5a4639 4639 0 0 1 92 24q.934 10.132-2 19a4072 4072 0 0 0-61-15v20q25.56 6.015 51 12.5 2.816 5.24 2 11.5 4.75-.15 9 2a401 401 0 0 1 1 40l-10-2a25.9 25.9 0 0 1-1 10 9546 9546 0 0 0-93-25 50.5 50.5 0 0 1 0-20 2115 2115 0 0 0 62 16v-20a2849 2849 0 0 1-51-13 256 256 0 0 0-2-11 29.4 29.4 0 0 1-9-2 401 401 0 0 1-1-40l8 1q1.063 1.356 3 1-.832-5.268 2-9"/><path style="opacity:1" fill="#c0d0eb" d="M-.5 391.5a120.5 120.5 0 0 0 17 4v37a21.4 21.4 0 0 1-7-1 28.8 28.8 0 0 1-10-2z"/><path style="opacity:1" fill="#6d6d6d" d="M632.5 397.5q-2.832 3.732-2 9-1.937.356-3-1 2.832-3.732 2-9 1.937-.356 3 1"/><path style="opacity:1" fill="#fdfdfd" d="M345.5 498.5q.972 20.563-2 40a557 557 0 0 1-39-10 421 421 0 0 1-1-41 110 110 0 0 1-20-5 401 401 0 0 0-1 40l-42-10q-.5-50.51 1-101a4847 4847 0 0 0 94 24v11l10 2v30a29.4 29.4 0 0 1-9-2 50.5 50.5 0 0 0 0 20 29.4 29.4 0 0 0 9 2"/><path style="opacity:1" fill="#5c4d21" d="M86.5 373.5h1a994 994 0 0 1-.5 36q-1.559 1.116-1.5 3l-2 6q-2.37-3.326-3-8l-2 2a151 151 0 0 0-5.5 16q-3.417 3.119-5.5 7-1.428 2.318-1 5h-3v4a56.5 56.5 0 0 0-12-2v-1a113.4 113.4 0 0 1 9-18 395 395 0 0 0 21-41 27.7 27.7 0 0 1 5-9"/><path style="opacity:1" fill="#676767" d="M724.5 421.5q1.486 9.719 1 20-1.937.356-3-1 2.934-8.868 2-19"/><path style="opacity:1" fill="#86a5b7" d="M905.5 422.5v-1q11.857.462 22 6-11.011-2.509-22-5"/><path style="opacity:1" fill="#2c2d5b" d="M85.5 412.5q2.853 4.256 2 10-2.055 2.625-3 6-4.811 10.213-10 19-2.188.1-4-1-1.194-6.195 4-9.5 2.93-10.131 9-18.5z"/><path style="opacity:1" fill="#fcfcfc" d="M748.5 427.5a877 877 0 0 0 40 10v41l18 4q1.063 1.356 3 1v-40a1835 1835 0 0 0 41 10q.978 25.55-2 50a21 21 0 0 1-7-2 25.9 25.9 0 0 0-1 10 53101 53101 0 0 1-20-5 401 401 0 0 0-1 40 1853 1853 0 0 1-41-10.5q-.987-20.156-2-40.5a167 167 0 0 0-20-5v-11a82 82 0 0 1-10-2q-.978-25.55 2-50"/><path style="opacity:1" fill="#954b50" d="M905.5 422.5q10.989 2.491 22 5l8 3a8.4 8.4 0 0 0-4 .5 36.2 36.2 0 0 1 8 2.5q-3.942 4.82-5 11a154.6 154.6 0 0 1 34 8 335 335 0 0 1-18 37h-1a1273 1273 0 0 0-47-11 9.1 9.1 0 0 0 1-5 10.1 10.1 0 0 1 1.5-4q.75-23.495.5-47"/><path style="opacity:1" fill="#b7992c" d="M60.5 423.5a113.4 113.4 0 0 0-9 18 90.2 90.2 0 0 0-18-4 114 114 0 0 0-23-4.5q-.835-.574-1-1.5a21.4 21.4 0 0 0 7 1q2.077-1.61 3.5-4a75 75 0 0 0 3.5-10q4.111-3.713 6-9 .925-.166 1.5-1 .745 3.465.5 7 2.466.32 4.5-1a11.4 11.4 0 0 1 2.5 2q-3.407 1.294-7 0a12.9 12.9 0 0 1-.5 5q-1.064-2.21-3.5-2v4a183 183 0 0 1 21 5l2-3q1.381 3.384 5 3 .47-5.745 4.5-10 .74 2.451.5 5"/><path style="opacity:1" fill="#9e9e9e" d="M748.5 427.5q-2.978 24.45-2 50a651 651 0 0 1-1-51q1.937-.356 3 1"/><path style="opacity:1" fill="#fbf22d" d="M-.5 429.5a28.8 28.8 0 0 0 10 2q.165.926 1 1.5a114 114 0 0 1 23 4.5q-.35 2.343-2 4a60 60 0 0 1-4 8q-2.835.305-4.5-2a3.94 3.94 0 0 1-2 1 261 261 0 0 1-21.5-5z"/><path style="opacity:1" fill="#4f2c2c" d="M83.5 418.5q-6.07 8.369-9 18.5-5.194 3.305-4 9.5-3.979.135-7-2v-4h3q-.428-2.682 1-5 2.083-3.881 5.5-7a151 151 0 0 1 5.5-16l2-2q.63 4.674 3 8"/><path style="opacity:1" fill="#f4ebc5" d="M33.5 437.5a90.2 90.2 0 0 1 18 4v1a290 290 0 0 0-15.5-3q-1.95 1.81-4.5 2 1.65-1.657 2-4"/><path style="opacity:1" fill="#fdfdfd" d="M51.5 442.5q6.159.36 12 2 3.021 2.135 7 2 1.812 1.1 4 1a2559 2559 0 0 0 61 16 1683 1683 0 0 0 34 8.5q.686.621 1 1.5-1.695 1.683-2 4a42.7 42.7 0 0 0-4.5 6 1721 1721 0 0 0-24.5 49A95679 95679 0 0 1 6.5 499q-2.21-1.064-2-3.5l2-6a6354 6354 0 0 0 15-28q2.7-6.073 6-12a60 60 0 0 0 4-8q2.55-.19 4.5-2a290 290 0 0 1 15.5 3"/><path style="opacity:1" fill="#070707" d="M282.5 442.5a160 160 0 0 0 21 5v20a167 167 0 0 1-20-5q-1.495-9.95-1-20"/><path style="opacity:1" fill="#84383c" d="M935.5 430.5a292 292 0 0 1 40 10 74 74 0 0 1-7 12 154.6 154.6 0 0 0-34-8q1.058-6.18 5-11a36.2 36.2 0 0 0-8-2.5 8.4 8.4 0 0 1 4-.5"/><path style="opacity:1" fill="#fbfbfb" d="M471.5 481.5a1601 1601 0 0 1-1 80 35.2 35.2 0 0 1-8-2 25.9 25.9 0 0 0-1 10 2534 2534 0 0 1-83-22 25.9 25.9 0 0 1-1-10l-9-2a1661 1661 0 0 1-1-81 54 54 0 0 0 10 2v-9q41.005 10.082 82 20.5 2.816 5.24 2 11.5a54 54 0 0 1 10 2"/><path style="opacity:1" fill="#6f6f6f" d="M629.5 446.5a256 256 0 0 1 2 11q-2.87-4.776-2-11"/><path style="opacity:1" fill="#2a3044" d="M84.5 428.5q-1.554 2.836 0 5.5a2988 2988 0 0 0 62 15.5l-4 14h-7a2559 2559 0 0 1-61-16q5.189-8.787 10-19"/><path style="opacity:1" fill="#d3b224" d="M-.5 443.5a261 261 0 0 0 21.5 5 3.94 3.94 0 0 0 2-1q1.665 2.305 4.5 2-3.3 5.927-6 12v-3a131.4 131.4 0 0 1-22-5z"/><path style="opacity:1" fill="#b0b0b0" d="M367.5 454.5q-.486 40.611 1 81-1.999-19.725-2-40.5 0-20.506 1-40.5"/><path style="opacity:1" fill="#7b7b7b" d="M809.5 443.5v40q-1.937.356-3-1a379 379 0 0 0 3-39"/><path style="opacity:1" fill="#acacac" d="M850.5 453.5a651 651 0 0 1 1 51q-1.937.356-3-1 2.978-24.45 2-50"/><path style="opacity:1" fill="#374760" d="M992.5 447.5h1v27q-.513 1.258-2 1 1.42-13.92 1-28"/><path style="opacity:1" fill="#85383d" d="M906.5 449.5a245 245 0 0 0 38 10q-1.049 6.846-5 12.5-16.311-1.915-32-7.5a57.2 57.2 0 0 1-1-15"/><path style="opacity:1" fill="#fb5218" d="M-.5 453.5a131.4 131.4 0 0 0 22 5v3a6354 6354 0 0 1-15 28 193 193 0 0 0 1.5-7 22.7 22.7 0 0 0-8.5-2z"/><path style="opacity:1" fill="#af6c6b" d="M975.5 440.5q6.756 1.375 13.5 3 3.492.748 4.5 4h-1a2848 2848 0 0 0-25 47 239 239 0 0 0-17-5 335 335 0 0 0 18-37 74 74 0 0 0 7-12"/><path style="opacity:1" fill="#1a1e28" d="M225.5 405.5h4q-.977 59.33 2 118h-3v-117q-1.937.356-3-1"/><path style="opacity:1" fill="#311e28" d="M992.5 447.5q.42 14.08-1 28a35.7 35.7 0 0 1-4 7 72.4 72.4 0 0 0-.5-12 139 139 0 0 0-6.5 13 83 83 0 0 1-6.5 10l-1 19a384 384 0 0 1-5.5 10q-4.392-.098-8-2h8v-26a2848 2848 0 0 1 25-47"/><path style="opacity:1" fill="#010102" d="M409.5 475.5a219 219 0 0 0 20 5v60a93 93 0 0 1-19.5-5q-.75-29.995-.5-60"/><path style="opacity:1" fill="#7b7b7b" d="M588.5 476.5a25.9 25.9 0 0 1-1 10q-.91-.186-1-1z"/><path style="opacity:1" fill="#1f88cb" d="M993.5 474.5c8.55.938 16.88 2.605 25 5a8.4 8.4 0 0 1-.5 4 554 554 0 0 0-23.5 45q-2.361 1.697-5 .5a28641 28641 0 0 1-22-6.5 384 384 0 0 0 5.5-10l1-19a83 83 0 0 0 6.5-10q2.34.028 4.5 1 1.951-.208 2.5-2a35.7 35.7 0 0 0 4-7q1.487.258 2-1"/><path style="opacity:1" fill="#fdfdfd" d="M493.5 577.5a2026 2026 0 0 1 1-90 88 88 0 0 0 9 2 25.9 25.9 0 0 1 1-10 2410 2410 0 0 0 81 21.5q2.557 4.752 2.5 10.5a198 198 0 0 0 9.5 3q1.5 44.99 1 90a612 612 0 0 1-41-10 421 421 0 0 1-1-41 110 110 0 0 1-20-5 401 401 0 0 0-1 40 484 484 0 0 1-42-11"/><path style="opacity:1" fill="#7c4b51" d="M987.5 482.5q-.549 1.792-2.5 2a11.2 11.2 0 0 0-4.5-1 139 139 0 0 1 6.5-13q.749 5.979.5 12"/><path style="opacity:1" fill="#68363e" d="M903.5 473.5a9.1 9.1 0 0 1-1 5 1273 1273 0 0 1 47 11 251 251 0 0 0 1 28h-4a67.7 67.7 0 0 0-14-2.5 39 39 0 0 1-5-2.5q5.495.918 11 .5a10.1 10.1 0 0 0-6-1.5v-14q-2.927.41-4.5-2a3.94 3.94 0 0 1-2 1 74 74 0 0 0-9.5-1.5 91.5 91.5 0 0 0-20-4.5 19.4 19.4 0 0 1-1 8q-1.914 1.717-4 0-1.5.5-2 2a14.34 14.34 0 0 0 6 3 41.7 41.7 0 0 1-9-1 420 420 0 0 1 17-29"/><path style="opacity:1" fill="#4d58a1" d="M170.5 479.5q-1.963 1.686-2 4.5a116.6 116.6 0 0 1-.5 27.5 4.46 4.46 0 0 1-1.5 2l-1-4q1.085-4.991.5-10-2.958-1.208-4.5-4a76 76 0 0 0-2 9 229 229 0 0 1-12 26q-.925.166-1.5 1 .09 15.274-2.5 30 1.09 5.71-4 8v-37a1721 1721 0 0 1 24.5-49 42.7 42.7 0 0 1 4.5-6q2.554-1.74 2 2"/><path style="opacity:1" fill="#5e2a2e" d="M927.5 512.5a142.6 142.6 0 0 1-32-9 14.34 14.34 0 0 1-6-3q.5-1.5 2-2 2.086 1.717 4 0a19.4 19.4 0 0 0 1-8 91.5 91.5 0 0 1 20 4.5q4.808.444 9.5 1.5a3.94 3.94 0 0 0 2-1q1.573 2.41 4.5 2v14a10.1 10.1 0 0 1 6 1.5q-5.505.418-11-.5"/><path style="opacity:1" fill="#9c574b" d="M175.5 498.5a100 100 0 0 1 16 4q-8.665-.096-16-4"/><path style="opacity:1" fill="#4a4a4a" d="M345.5 498.5a421 421 0 0 1 1 41q-1.937.356-3-1 2.972-19.437 2-40"/><path style="opacity:1" fill="#646464" d="M494.5 487.5a2026 2026 0 0 0-1 90 1038 1038 0 0 1 0-91q.91.186 1 1"/><path style="opacity:1" fill="#f61c08" d="M-.5 480.5q4.47.18 8.5 2a193 193 0 0 1-1.5 7l-2 6h-1q-1 13.263-2 27a44 44 0 0 0-2-1z"/><path style="opacity:1" fill="#fa5518" d="M175.5 498.5q7.335 3.904 16 4 8.868 2.47 18 5-1.216 5.415-4 10-1.147.635-2.5 1a164 164 0 0 1-31.5-7v-13z"/><path style="opacity:1" fill="#a1a1a1" d="M471.5 481.5a823 823 0 0 1 0 81q-.91-.186-1-1a1601 1601 0 0 0 1-80"/><path style="opacity:1" fill="#080808" d="M535.5 508.5a480 480 0 0 0 21 5v20a219 219 0 0 1-20-5q-1.495-9.95-1-20"/><path style="opacity:1" fill="#fdfdfd" d="M619.5 510.5a9880 9880 0 0 1 95 24 25.9 25.9 0 0 0 1 10 178 178 0 0 0 8.5 3q.75 39.997.5 80a29.4 29.4 0 0 1-9-2l-2 10a9556 9556 0 0 1-93-25q-1.5-49.99-1-100"/><path style="opacity:1" fill="#4c5469" d="M58.5 305.5a243.4 243.4 0 0 1 39 9.5q3.465.745 7 .5a601 601 0 0 0 1 49 46 46 0 0 0 7 3 25.9 25.9 0 0 1 1 10l112 28q1.063 1.356 3 1v117h3a44809 44809 0 0 1 368 96 8.4 8.4 0 0 1-.5 4 62.6 62.6 0 0 0-7.5 15q0 1-1 1-3.477 2.528-3 7-2.11.71-2 3l-2 2a970 970 0 0 0-54-13q-2.294.044-3.5 2a42.6 42.6 0 0 0-3.5 8q.476 1.721 2 2.5 26.454 6.914 52 13.5-1.45 7.877-6 14-2.618 2.3-3 6-1.356 1.063-1 3-2.146.572-2.5 3a800 800 0 0 0-.5 40q-1.985 6.6 0 13.5l22 5.5q-2.682-.428-5 1l-5 8 3 2.5a201 201 0 0 1 20 4.5 101 101 0 0 0 16 3v-12q1.485 8.715 1 18-1.812-1.1-4-1a483 483 0 0 0-24-6q-.572-2.146-3-2.5a171 171 0 0 0-25-4.5q-7.53-3.675-16-5a734 734 0 0 1-52-13q-7.036-3.136-15-4a305 305 0 0 1-29-7q-3.022-2.135-7-2a44955 44955 0 0 1-226-58 112 112 0 0 0-9-5 637 637 0 0 1 22 4q18.28-34.564 36.5-69l1-6q4.87-4.176 3.5-10a3243 3243 0 0 1 104 27.5q4.09 1.227 8-.5a941 941 0 0 1 5-10l-1-1a2506 2506 0 0 0-126-32.5 52 52 0 0 0-13-4.5q-6.418 5.805-6 14a1814 1814 0 0 1-33-8q-1.197-.686-1-2l4.5-9q.749-5.979.5-12a401 401 0 0 0-1-40q-9.132-2.53-18-5a100 100 0 0 0-16-4q-2.128-1.426-5-1v-18q.554-3.74-2-2 .305-2.317 2-4a3.65 3.65 0 0 0-1-1.5 1683 1683 0 0 1-34-8.5h7l4-14a2988 2988 0 0 1-62-15.5q-1.554-2.664 0-5.5.945-3.375 3-6 .853-5.744-2-10-.059-1.884 1.5-3 .578-18.137.5-36 .32-2.466-1-4.5a25 25 0 0 0-7-.5q-1.602-1.401-4-1-.165-.926-1-1.5a71 71 0 0 0-9-1.5q-4.079-2.12-9-2-4.212-2.143-9-2 .488-11.278-1-22 1.1-1.812 1-4-2.398.401-4-1 5.4-1.019-1-2.5 6.972-11.432 14-23l-1-1q1.856-.348 3-1.5"/><path style="opacity:1" fill="#6f80a2" d="M87.5 422.5a810 810 0 0 0 2-11l64 16a66 66 0 0 0-5 13 1068 1068 0 0 1-61-15z"/><path style="opacity:1" fill="#7b4d51" d="M949.5 489.5h1a239 239 0 0 1 17 5v26h-8a45.7 45.7 0 0 0-9-3 251 251 0 0 1-1-28"/><path style="opacity:1" fill="#070405" d="M27.5 516.5a676 676 0 0 0 60 15.5 166.5 166.5 0 0 1 1 25.5 120.5 120.5 0 0 0-17-4 96.4 96.4 0 0 0-21-5q-9.002-3.81-19-5-6.055-.848-11-4v-24a52 52 0 0 0 7 1"/><path style="opacity:1" fill="#505d93" d="M170.5 479.5v18a98.4 98.4 0 0 1-.5 14 19.2 19.2 0 0 0-2.5 5 10.2 10.2 0 0 1-3 3v-20h-3q.57 3.297-2 5a76 76 0 0 1 2-9q1.542 2.792 4.5 4 .585 5.009-.5 10l1 4a4.46 4.46 0 0 0 1.5-2 116.6 116.6 0 0 0 .5-27.5q.037-2.814 2-4.5"/><path style="opacity:1" fill="#c1d1ec" d="M3.5 495.5h1q-.21 2.436 2 3.5a95679 95679 0 0 0 133 33.5v37q-1.064 1.356-3 1a45.7 45.7 0 0 1-9-3q-1.602-1.401-4-1v-28q-6.817.411-14-1-1.812-1.1-4-1v25a175 175 0 0 0-17-3v-1a166.5 166.5 0 0 0-1-25.5 676 676 0 0 1-60-15.5q-3.507-2.31-8-2v25a127 127 0 0 1-15.5-3 841 841 0 0 1-.5-41"/><path style="opacity:1" fill="#b23616" d="M170.5 497.5q2.872-.426 5 1h-4v13a164 164 0 0 0 31.5 7 11 11 0 0 0 2.5-1 152 152 0 0 0-9 19l-3 3a52 52 0 0 1 3-9 252 252 0 0 1-25-5.5q1.846-1.774 0-3.5-2.755 5.57-4.5 0-.981 1.794-1.5 0 2.175-2.024 2-5a19.2 19.2 0 0 1 2.5-5q.749-6.982.5-14"/><path style="opacity:1" fill="#6f767f" d="M946.5 517.5h4a45.7 45.7 0 0 1 9 3q-7.031-.077-13-3"/><path style="opacity:1" fill="#0f0b11" d="M164.5 519.5a59.4 59.4 0 0 1-5 13q-6.35 7.395-9 17-2.769 2.295-3 6-1.93-12.307 0-25a229 229 0 0 0 12-26q2.57-1.703 2-5h3z"/><path style="opacity:1" fill="#868c9e" d="M27.5 516.5a52 52 0 0 1-7-1v24h-1v-25q4.493-.31 8 2"/><path style="opacity:1" fill="#4c5469" d="M879.5 514.5q.436 1.724 2.5 2 71.05 18.062 141.5 36v33a57.4 57.4 0 0 0-12-1.5q-6.69 10.174-12 20.5a293 293 0 0 1-32-8q-3.608-1.902-8-2a710 710 0 0 0-21-5q-1.218-2.24-4-2-2.295.21-3 2a22.6 22.6 0 0 0-4 8q-3.663 2.431-4 7-1.267 1.757-2 4a163 163 0 0 0-8 15 3263 3263 0 0 0-49-13 4.93 4.93 0 0 0-2.5 1q-3.546 5.579-4.5 12 24.477 5.952 49 12a28.8 28.8 0 0 1-3 8 375 375 0 0 0-12 23q-1.588 1.65-2.5 4a648 648 0 0 0-.5 36l-19-9.5q-4.149-2.056-7-5.5a77.7 77.7 0 0 1 1-17 3.65 3.65 0 0 0-1-1.5 71 71 0 0 0-9-1.5 32.65 32.65 0 0 1-13-3q-2.128-1.426-5-1-1.063-1.356-3-1a38.2 38.2 0 0 1-11-5q.986-9.084 0-20 .255-1.983-1-3.5l-9-1a416 416 0 0 0-30-9 113.2 113.2 0 0 0-23-4.5 885 885 0 0 1 19.5-34q.75-20.494.5-41a1842 1842 0 0 1 58 14.5q2.5 1 5 0a282 282 0 0 1 18-30.5q5.969-1.863 8-8a62 62 0 0 1 7-1 58 58 0 0 1 5-9"/><path style="opacity:1" fill="#352e45" d="M147.5 530.5q-1.93 12.693 0 25a19.2 19.2 0 0 0-1 6h-3q2.59-14.726 2.5-30 .575-.834 1.5-1"/><path style="opacity:1" fill="#7a1b1a" d="M159.5 532.5q-.495 5.281-4.5 9-.388 5.3-4.5 8 2.65-9.605 9-17"/><path style="opacity:1" fill="#af1c12" d="M167.5 516.5q.175 2.976-2 5 .519 1.794 1.5 0 1.745 5.57 4.5 0 1.846 1.726 0 3.5a252 252 0 0 0 25 5.5 52 52 0 0 0-3 9 237 237 0 0 1-13 26q-3.651 1.906-4.5 6a12.9 12.9 0 0 1-.5-5 58 58 0 0 1-14-4q-4.12 1.96-5-3a9.3 9.3 0 0 1-2.5 2q-3.95-3.71-7.5 0a19.2 19.2 0 0 1 1-6q.231-3.705 3-6 4.112-2.7 4.5-8 4.005-3.719 4.5-9a59.4 59.4 0 0 0 5-13 10.2 10.2 0 0 0 3-3"/><path style="opacity:1" fill="#030303" d="M661.5 541.5a219 219 0 0 1 20 5q1.5 29.984 1 60a219 219 0 0 1-20-5 901 901 0 0 1-1-60"/><path style="opacity:1" fill="#a0a7b9" d="M109.5 537.5q7.183 1.411 14 1v28q2.398-.401 4 1-2.872.426-5-1 .25-12.51-.5-25a69 69 0 0 1-12.5-4"/><path style="opacity:1" fill="#ca4822" d="M31.5 543.5q9.998 1.19 19 5a83.6 83.6 0 0 0-19-2z"/><path style="opacity:1" fill="#18171d" d="M109.5 537.5a69 69 0 0 0 12.5 4q.75 12.49.5 25a202 202 0 0 0-17-5v-25q2.188-.1 4 1"/><path style="opacity:1" fill="#f9551a" d="M3.5 495.5q-.25 20.506.5 41a127 127 0 0 0 15.5 3h1q4.945 3.152 11 4v3a83.6 83.6 0 0 1 19 2 96.4 96.4 0 0 1 21 5q7.437 5.433 17 5a175 175 0 0 1 17 3 202 202 0 0 1 17 5q2.128 1.426 5 1a45.7 45.7 0 0 0 9 3 202 202 0 0 1 25 6.5q5.478.748 11 .5v5l-3 4a42.7 42.7 0 0 1-10 5q-3.117-3.729-8-3 .426-2.872-1-5h-1q-2.145-1.556-5-2-3.022-2.135-7-2l-8-2q-3.235-1.36-7-2h-3q-1.27-2.2-4-2.5-4.991-.915-10-1.5-5.57-.135-10-3-6.172-2.164-13-3a346 346 0 0 1-16-4q-6.059-4.833-8 3a70.5 70.5 0 0 0-11-3 279 279 0 0 0-30-8q-2.364-2.526-5-1a61.4 61.4 0 0 0-13-3v-28q.975.456 2 1 1-13.737 2-27"/><path style="opacity:1" fill="#fb2a06" d="m47.5 561.5-2 4a20.7 20.7 0 0 1-1 5l-2 1a911 911 0 0 1-34-5 5.6 5.6 0 0 0-1-3q2.261-5.86 5-11 2.636-1.526 5 1a279 279 0 0 1 30 8"/><path style="opacity:1" fill="#bc3f1d" d="M71.5 553.5a120.5 120.5 0 0 1 17 4v1q-9.563.433-17-5"/><path style="opacity:1" fill="#dc4014" d="M-.5 549.5a61.4 61.4 0 0 1 13 3q-2.739 5.14-5 11 .94 1.376 1 3v9h-9z"/><path style="opacity:1" fill="#d9911a" d="M82.5 565.5q6.828.836 13 3-7.038.113-13-3"/><path style="opacity:1" fill="#b13616" d="M180.5 565.5a75.5 75.5 0 0 0-8 17v-5a61 61 0 0 1-11-.5 202 202 0 0 0-25-6.5q1.936.356 3-1 5.09-2.29 4-8h3q3.55-3.71 7.5 0a9.3 9.3 0 0 0 2.5-2q.88 4.96 5 3a58 58 0 0 0 14 4 12.9 12.9 0 0 0 .5 5q.849-4.094 4.5-6"/><path style="opacity:1" fill="#c1a81c" d="M66.5 561.5q-6.42-1.525-7 5-.686 1.197-2 1a5.73 5.73 0 0 1 1-3q1.941-7.833 8-3"/><path style="opacity:1" fill="#561412" d="M209.5 507.5a401 401 0 0 1 1 40q-1.494-.129-2.5 1l-1 5a42.2 42.2 0 0 1-7 10 86 86 0 0 0-3.5 12h-3a102.5 102.5 0 0 1-5 16h-3a131 131 0 0 0-4.5 12q-8.057 12.623-13.5 26v-15q-.25-12.51.5-25 1.558-1.116 1.5-3l3-4a75.5 75.5 0 0 1 8-17 237 237 0 0 0 13-26l3-3a152 152 0 0 1 9-19q2.784-4.585 4-10"/><path style="opacity:1" fill="#4e0e14" d="M44.5 570.5a20.7 20.7 0 0 0 1-5q.925-.166 1.5-1 2.28 10.026-4 18-1.376-6.393 1.5-12"/><path style="opacity:1" fill="#9fcf02" d="M66.5 561.5a346 346 0 0 0 16 4q5.962 3.113 13 3 4.43 2.865 10 3 6.457 3.37 14 4h3q.166.925 1 1.5 2.96.743 6 .5l8 2q3.022 2.135 7 2 2.855.444 5 2v1a141 141 0 0 0-8.5 14 1364 1364 0 0 0-21.5 44 22.2 22.2 0 0 1-5 2 194 194 0 0 0-17-4q-33.962-8.494-68-17v-3q2.11-.71 2-3 2.44-3.663 4-8 2.695-2.9 3-7 2.625-1.739 3-5a172 172 0 0 1 8-14 608 608 0 0 0 3-6 65.3 65.3 0 0 0 5-10q1.314.197 2-1 .58-6.525 7-5"/><path style="opacity:1" fill="#2a3146" d="M205.5 568.5q-.197 1.314 1 2a1814 1814 0 0 0 33 8q14.494 3.36 29 7 1.37 5.824-3.5 10l-1 6a511435 511435 0 0 0-36.5 69 637 637 0 0 0-22-4 212 212 0 0 1-9-.5q-2.216-3.857-6-1.5-3.863-2.075 1-2.5a4.93 4.93 0 0 0-3-.5 888 888 0 0 1-40-11h3q-.916-5.192 3.5-8a4.93 4.93 0 0 0 .5-3 61 61 0 0 0 12 3v-5q3.334-.483 5.5 2-.898-4.013.5-8a2671 2671 0 0 1 11-24h3a215 215 0 0 1 4-16h3a12.9 12.9 0 0 1 .5-5 164 164 0 0 0 9.5-12q-2.528-3.822 1-6"/><path style="opacity:1" fill="#e18e14" d="M105.5 571.5q5.009.585 10 1.5 2.73.3 4 2.5-7.543-.63-14-4"/><path style="opacity:1" fill="#dca01f" d="M122.5 575.5q3.765.64 7 2a18.5 18.5 0 0 1-6-.5q-.834-.575-1-1.5"/><path style="opacity:1" fill="#d91c13" d="M8.5 566.5a911 911 0 0 0 34 5q-2.37 4.548-2 10-.367 6.9 2 11a99 99 0 0 1-11 2l-16-3q-.57-2.146-3-2.5-6.535-1.28-13-2.5v-11h9z"/><path style="opacity:1" fill="#c48b1c" d="M52.5 577.5a608 608 0 0 1-3 6q-.713-4.22 3-6"/><path style="opacity:1" fill="#6f7fa0" d="M268.5 585.5a1649 1649 0 0 0-29-7q-.418-8.195 6-14a52 52 0 0 1 13 4.5 2506 2506 0 0 1 126 32.5l1 1a941 941 0 0 0-5 10q-3.91 1.727-8 .5a3243 3243 0 0 0-104-27.5"/><path style="opacity:1" fill="#d98c15" d="M137.5 579.5q3.978-.135 7 2-3.978.135-7-2"/><path style="opacity:1" fill="#fcfcfb" d="M1023.5 585.5v69a324 324 0 0 1-42-11v-2a50.6 50.6 0 0 1 6-12 6024 6024 0 0 0 12-25q5.31-10.326 12-20.5 6.03.11 12 1.5"/><path style="opacity:1" fill="#ad424c" d="M-.5 587.5v-1q6.465 1.22 13 2.5 2.43.354 3 2.5a5318 5318 0 0 0-16-4"/><path style="opacity:1" fill="#989654" d="M938.5 589.5q-3.615-1.407-7 0 .705-1.79 3-2 2.782-.24 4 2"/><path style="opacity:1" fill="#cd3417" d="M47.5 561.5q5.606 1.05 11 3a5.73 5.73 0 0 0-1 3 65.3 65.3 0 0 1-5 10q-3.713 1.78-3 6a172 172 0 0 0-8 14l-6-1-4-2a99 99 0 0 0 11-2q-2.367-4.1-2-11-.37-5.452 2-10l2-1q-2.876 5.607-1.5 12 6.28-7.974 4-18-.575.834-1.5 1z"/><path style="opacity:1" fill="#dd4115" d="M150.5 583.5q1.426 2.128 1 5 4.883-.729 8 3a42.7 42.7 0 0 0 10-5q.058 1.884-1.5 3-.75 12.49-.5 25-1.142 1.337-3 2a228 228 0 0 0-13-3 234 234 0 0 1-1-30"/><path style="opacity:1" fill="#94924b" d="M959.5 594.5q4.392.098 8 2-4.493.31-8-2"/><path style="opacity:1" fill="#6d637e" d="m35.5 596.5 6 1q-.375 3.261-3 5a5.6 5.6 0 0 1 1-3q-2.748-.836-4-3"/><path style="opacity:1" fill="#625d9d" d="M-.5 587.5q8.08 2.007 16 4l16 3 4 2q1.252 2.164 4 3a5.6 5.6 0 0 0-1 3q-.305 4.1-3 7h-1a377 377 0 0 0-35-9z"/><path style="opacity:1" fill="#9f9e5f" d="M927.5 597.5q-1.452 3.9-4 7 .337-4.569 4-7"/><path style="opacity:1" fill="#fcf231" d="M938.5 589.5a710 710 0 0 1 21 5q3.507 2.31 8 2a293 293 0 0 0 32 8 6024 6024 0 0 1-12 25q-2.867-.111-3.5-3-3.185 5.205-3.5 0a396 396 0 0 1-55.5-14l-2.5 1a19 19 0 0 1-3 5l-1-1q2.806-4.101 3-9 .733-2.243 2-4 2.548-3.1 4-7a22.6 22.6 0 0 1 4-8q3.385-1.407 7 0"/><path style="opacity:1" fill="#983520" d="M149.5 583.5h1a234 234 0 0 0 1 30 61 61 0 0 0 .5 11 29 29 0 0 1 4.5 3l-6-1a453 453 0 0 1-1-42z"/><path style="opacity:1" fill="#2c3248" d="M-.5 600.5a377 377 0 0 1 35 9q-2.403 3.58-3 8 .11 2.29-2 3-6.01.963-12-1.5a9.5 9.5 0 0 1-1.5-2.5q-1.835 3.728-4.5.5a32.5 32.5 0 0 0-8-.5h-4z"/><path style="opacity:1" fill="#2e2b55" d="M210.5 547.5a72.4 72.4 0 0 1-.5 12l-4.5 9q-3.528 2.178-1 6a164 164 0 0 1-9.5 12 12.9 12.9 0 0 0-.5 5h-3a215 215 0 0 0-4 16h-3a2671 2671 0 0 0-11 24q-1.398 3.987-.5 8-2.166-2.483-5.5-2v-8q5.443-13.377 13.5-26a131 131 0 0 1 4.5-12h3a102.5 102.5 0 0 0 5-16h3a86 86 0 0 1 3.5-12 42.2 42.2 0 0 0 7-10l1-5q1.006-1.129 2.5-1"/><path style="opacity:1" fill="#6f7fa0" d="M913.5 623.5a220 220 0 0 0-4.5 11q-1.006 1.129-2.5 1a15484 15484 0 0 0-49-12q.954-6.421 4.5-12a4.93 4.93 0 0 1 2.5-1 3263 3263 0 0 1 49 13"/><path style="opacity:1" fill="#576f21" d="M34.5 609.5h1q-1.56 4.337-4 8 .597-4.42 3-8"/><path style="opacity:1" fill="#d61e16" d="M151.5 613.5q6.516 1.303 13 3 1.858-.663 3-2v15q-5.887.105-11-2a29 29 0 0 0-4.5-3 61 61 0 0 1-.5-11"/><path style="opacity:1" fill="#fde031" d="M921.5 608.5q-.194 4.899-3 9l1 1a19 19 0 0 0 3-5l2.5-1a396 396 0 0 0 55.5 14q.315 5.205 3.5 0 .633 2.889 3.5 3a50.6 50.6 0 0 0-6 12q-.925.166-1.5 1a544 544 0 0 0-.5 33q-1.46-3.672-1-8a1838 1838 0 0 1-71-18l-1-6h-3a28.8 28.8 0 0 0 3-8q1.494.129 2.5-1a220 220 0 0 1 4.5-11 163 163 0 0 1 8-15"/><path style="opacity:1" fill="#53605d" d="M3.5 616.5a32.5 32.5 0 0 1 8 .5q2.665 3.228 4.5-.5.561 1.375 1.5 2.5 5.99 2.463 12 1.5v3a16.9 16.9 0 0 1-8-1 1614 1614 0 0 1-18-6"/><path style="opacity:1" fill="#fafafa" d="M758.5 623.5a113.2 113.2 0 0 1 23 4.5 416 416 0 0 1 30 9l9 1q1.255 1.517 1 3.5-5.54 6.076-8 14h-3a243 243 0 0 1-25.5-11 111.6 111.6 0 0 1-20.5 8.5 146 146 0 0 1-28 14 12.5 12.5 0 0 1-5 4 214 214 0 0 0-18 7.5 25 25 0 0 1-7-.5 890 890 0 0 0-51-12.5v-3a19.5 19.5 0 0 1 3-7 321 321 0 0 0 9-19 9435 9435 0 0 1 65.5 17q3.236-4.455 6.5-9 4.187 2.31 7.5-1a292 292 0 0 1 11.5-20"/><path style="opacity:1" fill="#c34e28" d="M618.5 623.5a193 193 0 0 1 21 6 664 664 0 0 0-20-3.5q-1.129-1.006-1-2.5"/><path style="opacity:1" fill="#fa5519" d="M599.5 619.5a191 191 0 0 1 19 4q-.129 1.494 1 2.5a664 664 0 0 1 20 3.5 215 215 0 0 1 28 7 321 321 0 0 1-9 19 23.1 23.1 0 0 0-2-8 34387 34387 0 0 1-62-15 12.9 12.9 0 0 1-.5 5q-1.006 1.129-2.5 1a62.6 62.6 0 0 1 7.5-15 8.4 8.4 0 0 0 .5-4"/><path style="opacity:1" fill="#615d9c" d="m150.5 626.5 6 1q5.113 2.105 11 2v13a61 61 0 0 1-12-3q-3.422.634-5-2z"/><path style="opacity:1" fill="#fd2a05" d="M658.5 655.5a19.5 19.5 0 0 0-3 7q-.925.166-1.5 1-.75 11.99-.5 24-6.09.023-12-1.5a1453 1453 0 0 0-63-16q-1.658-3.18 0-6.5 1.239-4.477 4-8 2.769-2.295 3-6-.11-2.29 2-3 2.118-3.156 3-7 1 0 1-1 1.494.129 2.5-1a12.9 12.9 0 0 0 .5-5q30.868 7.499 62 15a23.1 23.1 0 0 1 2 8"/><path style="opacity:1" fill="#050809" d="M150.5 637.5q1.578 2.634 5 2a4.93 4.93 0 0 1-.5 3q-4.416 2.808-3.5 8h-8a514 514 0 0 1 5-12q.686-1.197 2-1"/><path style="opacity:1" fill="#789e2b" d="M29.5 623.5q34.038 8.506 68 17a31 31 0 0 0 2 2 32 32 0 0 0-4 2.5q4.884.55 9.5-1.5 2.951.063 5.5 1.5l-3 1q2.603.977 5-.5-.963 5.661 2 11l-1.5 1a849 849 0 0 0-28.5-8.5l-10-1a2033 2033 0 0 0-43-11q-.85-1.492-2-2.5z"/><path style="opacity:1" fill="#5e8f33" d="M-.5 637.5a236 236 0 0 1 27 7 1019 1019 0 0 1-27 54z"/><path style="opacity:1" fill="#af4f47" d="M590.5 639.5q-.882 3.844-3 7-.477-4.472 3-7"/><path style="opacity:1" fill="#83ab22" d="M29.5 634.5q1.15 1.008 2 2.5a2033 2033 0 0 1 43 11l10 1a849 849 0 0 1 28.5 8.5l1.5-1q-2.963-5.339-2-11-2.397 1.477-5 .5l3-1a11.5 11.5 0 0 0-5.5-1.5q-4.616 2.05-9.5 1.5a32 32 0 0 1 4-2.5 31 31 0 0 1-2-2 194 194 0 0 1 17 4 22.2 22.2 0 0 0 5-2 5.73 5.73 0 0 0-1 3h-1q-1 20.759-2 42a10.8 10.8 0 0 0-3-2.5 191.6 191.6 0 0 1-26-8 415 415 0 0 0-28-5l1-1q-1.684-1.566-4-2a320 320 0 0 0-20-3 12.4 12.4 0 0 0-4-2.5q-1.905 6.572 0 13-2.974-20.44-2-42"/><path style="opacity:1" fill="#6f80a1" d="M583.5 651.5q-1.1 1.812-1 4-2.761 3.523-4 8l-2 1a16311 16311 0 0 1-52-13.5q-1.524-.779-2-2.5a42.6 42.6 0 0 1 3.5-8q1.206-1.956 3.5-2a970 970 0 0 1 54 13"/><path style="opacity:1" fill="#fd4d95" d="M810.5 655.5q-.128 1.494 1 2.5a61.5 61.5 0 0 0 10 3.5 38.2 38.2 0 0 0 11 5q.128 1.494-1 2.5a62806 62806 0 0 1-93.5 46.5q-.75 28.495-.5 57a1668 1668 0 0 1-1.5-58 190 190 0 0 0-16.5-8v-3q-14.392-3.228-27-11.5 1.595-1.782 4-1.5v-3a204 204 0 0 0 17-9 214 214 0 0 1 18-7.5 12.5 12.5 0 0 0 5-4 146 146 0 0 0 28-14 111.6 111.6 0 0 0 20.5-8.5 243 243 0 0 0 25.5 11"/><path style="opacity:1" fill="#464e66" d="M143.5 650.5h5a888 888 0 0 0 40 11q-4.842 1.37-10 1a291 291 0 0 0-33-9q-1.577-1.083-2-3"/><path style="opacity:1" fill="#b15d5a" d="M585.5 649.5q-.231 3.705-3 6-.1-2.188 1-4z"/><path style="opacity:1" fill="#595ca1" d="M821.5 641.5q.986 10.916 0 20a61.5 61.5 0 0 1-10-3.5q-1.128-1.006-1-2.5h3q2.46-7.924 8-14"/><path style="opacity:1" fill="#efe17b" d="M981.5 641.5v2a362 362 0 0 0-1 38q-1.442-2.648-1-6-.25-16.507.5-33 .575-.834 1.5-1"/><path style="opacity:1" fill="#c0cfeb" d="M981.5 643.5a324 324 0 0 0 42 11v12c-8.7-1.45-17.36-3.117-26-5v23a65 65 0 0 1-17-3 362 362 0 0 1 1-38"/><path style="opacity:1" fill="#070606" d="M1023.5 666.5v26a220 220 0 0 0-24-5.5q-1.884-.625-2-2.5v-23c8.64 1.883 17.3 3.55 26 5"/><path style="opacity:1" fill="#445d1a" d="M117.5 645.5h1a651 651 0 0 0 1 51q-.24 2.48-2 4-1.422-2.217-4-3h4z"/><path style="opacity:1" fill="#fcf231" d="M903.5 643.5h3l1 6a1838 1838 0 0 0 71 18q-.46 4.328 1 8-.442 3.352 1 6a65 65 0 0 0 17 3q.116 1.875 2 2.5a220 220 0 0 1 24 5.5v14a33.1 33.1 0 0 1-11-3 369 369 0 0 1-47-13.5 18.5 18.5 0 0 0-6-.5 6156 6156 0 0 1-67-16.5 4.46 4.46 0 0 1-2-1.5 9.1 9.1 0 0 0 1-5 375 375 0 0 1 12-23"/><path style="opacity:1" fill="#56635e" d="M188.5 661.5a4.93 4.93 0 0 1 3 .5q-4.863.425-1 2.5 3.784-2.357 6 1.5 4.796.362 9 .5a112 112 0 0 1 9 5 686 686 0 0 1-36-9q5.158.37 10-1"/><path style="opacity:1" fill="#9ed240" d="M-.5 616.5h4a1614 1614 0 0 0 18 6 16.9 16.9 0 0 0 8 1v11q-.974 21.56 2 42a188 188 0 0 1 21 6q-.25 13.01.5 26 2.55 1.359 5.5 1a141 141 0 0 0 12 3q1.516 2.853.5 6-3.357 2.713-3.5 7a759 759 0 0 1 30 8q1.82.37 2 2-1.485 9.217-1 19a40.6 40.6 0 0 1-14-3 6041 6041 0 0 0-47-11q-8.082-3.43-17-5a369 369 0 0 1-21-5v-32a1019 1019 0 0 0 27-54 236 236 0 0 0-27-7z"/><path style="opacity:1" fill="#bfd0ec" d="M655.5 665.5q25.65 5.489 51 12.5 3.465.745 7 .5a204 204 0 0 1-17 9h-2a219 219 0 0 0-20-5q-1.063-1.356-3-1v25a3586 3586 0 0 0-16-3z"/><path style="opacity:1" fill="#eb694a" d="M835.5 667.5q2.872-.426 5 1h-6a32.5 32.5 0 0 0 .5 8 134 134 0 0 1 10.5 7l-12-5q-.87-6.224 2-11"/><path style="opacity:1" fill="#779f2b" d="M117.5 645.5v52h-4l-8-1a1195 1195 0 0 0-33-9q-4.119-2.44-9-2-4.78-3.561-11-3a188 188 0 0 0-21-6q-1.905-6.428 0-13a12.4 12.4 0 0 1 4 2.5q10.053 1.185 20 3 2.316.434 4 2l-1 1a415 415 0 0 1 28 5 191.6 191.6 0 0 0 26 8 10.8 10.8 0 0 1 3 2.5q1-21.241 2-42"/><path style="opacity:1" fill="#fd571b" d="M655.5 662.5v41q7.972 1.476 16 3h1q1.52 1.76 4 2-3.297 2.846-8 3a91 91 0 0 0-13.5 5 2390 2390 0 0 0-89.5-23 19.2 19.2 0 0 1 1-6q-.356-1.937 1-3 2.618-2.3 3-6 4.55-6.123 6-14l2-1q-1.658 3.32 0 6.5a1453 1453 0 0 1 63 16 47.2 47.2 0 0 0 12 1.5q-.25-12.01.5-24 .575-.834 1.5-1"/><path style="opacity:1" fill="#364615" d="M149.5 584.5a453 453 0 0 0 1 42v11q-1.314-.197-2 1a514 514 0 0 0-5 12q.423 1.917 2 3h-5a41.8 41.8 0 0 1-5 10 1155 1155 0 0 0-16 33 651 651 0 0 1-1-51 5.73 5.73 0 0 1 1-3 1364 1364 0 0 1 21.5-44 141 141 0 0 1 8.5-14"/><path style="opacity:1" fill="#070506" d="M674.5 682.5a219 219 0 0 1 20 5 60 60 0 0 0-5.5 4 72.4 72.4 0 0 0-.5 12q-1.487-.258-2 1a32.8 32.8 0 0 1-10 4q-2.48-.24-4-2-.95-12.604 2-24"/><path style="opacity:1" fill="#f6561a" d="M840.5 668.5a32.65 32.65 0 0 0 13 3q.166.925 1 1.5 3.465.745 7 .5v4q-4.381 4.113-6 10h-1q-5.118-.813-9-4a134 134 0 0 0-10.5-7 32.5 32.5 0 0 1-.5-8z"/><path style="opacity:1" fill="#d0b224" d="M891.5 666.5a9.1 9.1 0 0 1-1 5 4.46 4.46 0 0 0 2 1.5 6156 6156 0 0 0 67 16.5 1758 1758 0 0 0 14 5q-3.692 5.595-5 12 1.937-.356 3 1-5.661-.024-3 5a4.46 4.46 0 0 1-2 1.5 12.8 12.8 0 0 0 6 3 4.93 4.93 0 0 1-3 .5 44.3 44.3 0 0 0-10-2h-1q-3.022-2.135-7-2a184 184 0 0 0-20-5q-2.403-2.361-6-2h-2q-1.473 5.193-1 11h-4a129 129 0 0 0-11-2 38 38 0 0 1-8-2.5 36.9 36.9 0 0 0-11-6.5q-.25-18.007.5-36 .912-2.35 2.5-4"/><path style="opacity:1" fill="#a45c47" d="M570.5 678.5q-.382 3.7-3 6 .382-3.7 3-6"/><path style="opacity:1" fill="#58120f" d="M861.5 677.5v12q-2.217.393-4-1 1.434-3.3-2-1 1.619-5.887 6-10"/><path style="opacity:1" fill="#fefdfd" d="m833.5 678.5 12 5q3.882 3.187 9 4 2.868 3.973 8 4 2.851 3.444 7 5.5l19 9.5a36.9 36.9 0 0 1 11 6.5 38 38 0 0 0 8 2.5q6.885 5.94 16 7a14.56 14.56 0 0 0 5 4 215 215 0 0 0-7 5 982430 982430 0 0 0-87 42.5q-2.909 1.362-3 4.5-5.353.677-9 4.5l-7 1-53 26.5q-1.5 106.496-1 213h-146v-59a396 396 0 0 1 22.5 9q12 5.92 23.5 12.5 3.318 1.183 6-.5 21.955-11.478 44-23 1.5-28.983 1-58 .25-30.005-.5-60a101 101 0 0 1-8.5-4q-4.698-3.915-11-5a221 221 0 0 1-28.5-13 6730 6730 0 0 0-36.5 18.5 52.2 52.2 0 0 1-12 4.5v-71q.485-9.285-1-18 .085-9.527 1-19 4.32-.66 8-3 3.261-.375 5-3a2271 2271 0 0 0 35-15.5q3.177-1.573 5-4.5 4.703-.154 8-3a32.8 32.8 0 0 0 10-4 550 550 0 0 1 3 47 3334 3334 0 0 0 46 22.5q3.261 1.315 5-1.5l92-46a577 577 0 0 0 1-48"/><path style="opacity:1" fill="#888547" d="M52.5 682.5q6.22-.561 11 3a82 82 0 0 0-10-2q-.25 12.01.5 24a36 36 0 0 1 4.5 2q-2.95.359-5.5-1-.75-12.99-.5-26"/><path style="opacity:1" fill="#67353d" d="M63.5 685.5q4.881-.44 9 2 .116 1.875 2 2.5 2.45.74 5 .5.03 2.464-2 4l1 1a28 28 0 0 1 5-1.5l-1-1a18.5 18.5 0 0 1 6-.5q-.483 3.334 2 5.5a32.4 32.4 0 0 1-6 2.5q1.783 1.393 4 1 .848 7.233-2 13.5 1.856.348 3 1.5a194 194 0 0 1-17-4h-2a141 141 0 0 1-12-3 36 36 0 0 0-4.5-2q-.75-11.99-.5-24a82 82 0 0 1 10 2"/><path style="opacity:1" fill="#5e8f34" d="M135.5 663.5a54 54 0 0 0-2 8 5610 5610 0 0 0 101.5 27 435 435 0 0 1-22 43q-2.367 9.134-7 17-3.291 3.505-7.5 1-1.602-1.401-4-1 .483 8.787-1 17 .497-14.035-1-28a789 789 0 0 1-23-6 19.6 19.6 0 0 0-3.5-2 714 714 0 0 0-1.5-38v-3a70.8 70.8 0 0 1-15.5-3l-2.5 1a21.4 21.4 0 0 0-4.5 8 129 129 0 0 0-.5 16v13a1035 1035 0 0 1-33.5-8 9.8 9.8 0 0 0-4 1q-1.529 5.058-4.5 9-.18-1.63-2-2a759 759 0 0 0-30-8q.143-4.287 3.5-7 1.016-3.147-.5-6h2q1.27 2.2 4 2.5a1007 1007 0 0 0 19 4.5q5.784.928 11 0a1048 1048 0 0 1 11-19q1.76-1.52 2-4a1155 1155 0 0 1 16-33"/><path style="opacity:1" fill="#9fd241" d="M145.5 653.5a291 291 0 0 1 33 9 686 686 0 0 0 36 9 44955 44955 0 0 0 226 58q2.907 2.494 7 2a305 305 0 0 0 29 7q7.041 3.17 15 4a734 734 0 0 0 52 13q7.5 3.665 16 5a343 343 0 0 0 28 7 483 483 0 0 1 24 6q1.453 1.213 2.5 3 .75 35.496.5 71a93 93 0 0 0-16 9q-3.297-.57-5 2-1.488 11.222-1 23a116 116 0 0 1-12-2q-15.088-2.394-29-8-2.013-1.94-5-2.5a1569 1569 0 0 1-28-5.5h-2q-6.56-2.926-14-4a52 52 0 0 0-7-1q-4.507-2.666-10-3a119 119 0 0 1-15-4q-5.908-3.421-13-4a114.5 114.5 0 0 1-23-5q-5.697-2.052-12-3-5.096-2.65-11-3-7.754-4.556-17-5-5.937.373-11-2-3.608-1.902-8-2a257 257 0 0 1-17-5.5 2167 2167 0 0 1-110-27.5q-1.65-1.588-4-2.5a93 93 0 0 1-15-2.5 776 776 0 0 1-24-6q-1.1-1.812-1-4a31.1 31.1 0 0 1-11-1 4.46 4.46 0 0 1 1.5-2q.749-8.486.5-17h3q4.209 2.505 7.5-1 4.633-7.866 7-17a435 435 0 0 0 22-43 5610 5610 0 0 1-101.5-27 54 54 0 0 1 2-8 41.8 41.8 0 0 0 5-10z"/><path style="opacity:1" fill="#494a4c" d="M674.5 682.5q-2.95 11.396-2 24h-1v-25q1.937-.356 3 1"/><path style="opacity:1" fill="#f82275" d="M832.5 666.5q1.937-.356 3 1-2.87 4.776-2 11a577 577 0 0 1-1 48l-92 46h-3q-.25-28.505.5-57a62806 62806 0 0 0 93.5-46.5q1.128-1.006 1-2.5"/><path style="opacity:1" fill="#5e393c" d="M853.5 671.5q4.533.456 9 1.5.686.621 1 1.5a77.7 77.7 0 0 0-1 17q-5.132-.027-8-4h1q3.434-2.3 2 1 1.783 1.393 4 1v-16a25 25 0 0 1-7-.5q-.834-.575-1-1.5"/><path style="opacity:1" fill="#fd62a5" d="M694.5 687.5h2v3q-2.405-.282-4 1.5 12.608 8.272 27 11.5v3q8.355 3.56 16.5 8 .252 29.257 1.5 58h3q-1.739 2.815-5 1.5a3334 3334 0 0 1-46-22.5 577 577 0 0 0-1-48 72.4 72.4 0 0 1 .5-12 60 60 0 0 1 5.5-4"/><path style="opacity:1" fill="#f3f5f2" d="m164.5 701.5-1 2-4 6a19.8 19.8 0 0 1-5.5 1 220 220 0 0 1-11.5-2q.475 6.303-1 12-.249-8.016.5-16a21.4 21.4 0 0 1 4.5-8l2.5-1a70.8 70.8 0 0 0 15.5 3z"/><path style="opacity:1" fill="#dd4116" d="M566.5 687.5a19.2 19.2 0 0 0-1 6 2390 2390 0 0 1 89.5 23 91 91 0 0 1 13.5-5q-1.823 2.927-5 4.5a2271 2271 0 0 1-35 15.5q-6.462 1.725-13 0-5.707-2.002-12-2.5-.834-.575-1-1.5a349 349 0 0 1-36-8v9a86.5 86.5 0 0 1 15 3.5q-6.97.007-14-.5-2.398.401-4-1-.25-20.006.5-40 .354-2.428 2.5-3"/><path style="opacity:1" fill="#5e292b" d="M72.5 687.5a1195 1195 0 0 1 33 9 156 156 0 0 1 1 23q-5.216.928-11 0-2.625-2.055-6-3-1.144-1.152-3-1.5 2.848-6.267 2-13.5-2.217.393-4-1a32.4 32.4 0 0 0 6-2.5q-2.483-2.166-2-5.5a18.5 18.5 0 0 0-6 .5l1 1a28 28 0 0 0-5 1.5l-1-1q2.03-1.536 2-4a12.9 12.9 0 0 1-5-.5q-1.884-.625-2-2.5"/><path style="opacity:1" fill="#231218" d="m105.5 696.5 8 1q2.578.783 4 3a1048 1048 0 0 0-11 19 156 156 0 0 0-1-23"/><path style="opacity:1" fill="#fce030" d="M959.5 689.5a18.5 18.5 0 0 1 6 .5 369 369 0 0 0 47 13.5h-6v3c-2.09 1.836-3.42 4.169-4 7a504 504 0 0 1-31-6q-1.063-1.356-3-1 1.308-6.405 5-12a1758 1758 0 0 1-14-5"/><path style="opacity:1" fill="#71581e" d="M925.5 706.5q3.597-.361 6 2-3.597.361-6-2"/><path style="opacity:1" fill="#060609" d="M923.5 706.5h2q2.403 2.361 6 2a184 184 0 0 1 20 5q3.022 2.135 7 2h1a114 114 0 0 0 13 4 530 530 0 0 1 2 14v12a20.7 20.7 0 0 1 5 1 30 30 0 0 1-3.5 6 8.4 8.4 0 0 0-.5 4h-6a116.3 116.3 0 0 1-19-5 106.3 106.3 0 0 0-20-4q.25-9.513-.5-19-.417-1.374-1.5-2a14.56 14.56 0 0 1-5-4z"/><path style="opacity:1" fill="#f9b4d0" d="M686.5 704.5q.513-1.258 2-1a577 577 0 0 1 1 48 550 550 0 0 0-3-47"/><path style="opacity:1" fill="#4e56a0" d="M163.5 703.5q1.469 4.687 1 10-1.494-.128-2.5 1a23 23 0 0 1-2 5 32.5 32.5 0 0 1-.5-8v-2z"/><path style="opacity:1" fill="#d0b320" d="M1012.5 703.5a33.1 33.1 0 0 0 11 3v26c-5.07-1.919-10.41-2.919-16-3a8.4 8.4 0 0 0-.5-4c-1.38 2.625-2.54 2.625-3.5 0q-.075-3.841 3-6 1.965-6.726 0-13v-3z"/><path style="opacity:1" fill="#676c35" d="M72.5 712.5a194 194 0 0 0 17 4q3.375.945 6 3a1007 1007 0 0 1-19-4.5q-2.73-.3-4-2.5"/><path style="opacity:1" fill="#d3d3e9" d="M159.5 709.5v2q-1.477 6.202-1 13a77.8 77.8 0 0 1-17-3v-1q1.475-5.697 1-12 5.708 1.15 11.5 2a19.8 19.8 0 0 0 5.5-1"/><path style="opacity:1" fill="#625214" d="M951.5 713.5q3.978-.135 7 2-3.978.135-7-2"/><path style="opacity:1" fill="#7d6c1d" d="M959.5 715.5q5.158.432 10 2l3 2a114 114 0 0 1-13-4"/><path style="opacity:1" fill="#5a5f86" d="M159.5 711.5a32.5 32.5 0 0 0 .5 8 23 23 0 0 0 2-5q1.006-1.128 2.5-1v1a539 539 0 0 0-5 10h-1q-.477-6.798 1-13"/><path style="opacity:1" fill="#837648" d="M923.5 706.5v13q-3.08.147-5-2h4q-.473-5.807 1-11"/><path style="opacity:1" fill="#5b511b" d="M1006.5 706.5q1.965 6.274 0 13-3.075 2.159-3 6c-1.28-1.194-1.94-2.86-2-5 .14-2.383.47-4.717 1-7 .58-2.831 1.91-5.164 4-7"/><path style="opacity:1" fill="#6d6da2" d="M907.5 715.5q5.546.762 11 2 1.92 2.147 5 2v3q-9.115-1.06-16-7"/><path style="opacity:1" fill="#030203" d="M141.5 733.5q.166.925 1 1.5 6.053 1.197 12 2.5 4.734 1.401 10 2 1.703 2.57 5 2a789 789 0 0 0 23 6 197 197 0 0 1 1 28q-1.76 1.52-2 4-2.922 2.73-3 7a233 233 0 0 0-17.5-4q-2.623.372-2.5 3-2.11.71-2 3a9.8 9.8 0 0 0-3 4 31.1 31.1 0 0 0-1-11 2013 2013 0 0 1-16-5q-2.145-1.556-5-2a11.6 11.6 0 0 0-7-.5 204 204 0 0 1-7 10.5q1.839-6.517 0-13a122 122 0 0 1-17-4q0-1-1-1a34.5 34.5 0 0 1-9.5-2 41 41 0 0 1-.5-9v-20q2.971-3.942 4.5-9a9.8 9.8 0 0 1 4-1 1035 1035 0 0 0 33.5 8"/><path style="opacity:1" fill="#695624" d="M972.5 719.5q2.64 4.801 2.5 11 1.478 1.971 3.5 3h-4a530 530 0 0 0-2-14"/><path style="opacity:1" fill="#3b0f15" d="M164.5 714.5v25q-5.266-.599-10-2h5v-13a539 539 0 0 1 5-10"/><path style="opacity:1" fill="#505032" d="M164.5 701.5a714 714 0 0 1 1.5 38 19.6 19.6 0 0 1 3.5 2q-3.297.57-5-2v-26q.469-5.313-1-10z"/><path style="opacity:1" fill="#d61f18" d="M602.5 727.5h-5v11a74 74 0 0 1-12-1.5 90.8 90.8 0 0 1-18-5.5q7.03.507 14 .5a86.5 86.5 0 0 0-15-3.5v-9a349 349 0 0 0 36 8"/><path style="opacity:1" fill="#c5d3ec" d="M944.5 724.5q5.646 2.238 12 3 .884 6.707-2 12-6.802-.956-13-3-1.395-5.85-1-12z"/><path style="opacity:1" fill="#4d5466" d="M944.5 724.5h-4q-.395 6.15 1 12-2.895-5.81-2-13 2.872-.426 5 1"/><path style="opacity:1" fill="#971a2b" d="M141.5 721.5a77.8 77.8 0 0 0 17 3h1v13h-5a598 598 0 0 0-12-2.5q-.834-.575-1-1.5z"/><path style="opacity:1" fill="#7d975b" d="M440.5 729.5q3.978-.135 7 2-4.093.494-7-2"/><path style="opacity:1" fill="#080608" d="M602.5 727.5q.166.925 1 1.5 6.293.498 12 2.5a46.7 46.7 0 0 0 8 3 20.5 20.5 0 0 1-8 3 218 218 0 0 0-1 19v12a101 101 0 0 1-16-3 177 177 0 0 1-1-26v-12z"/><path style="opacity:1" fill="#cea922" d="M971.5 707.5a504 504 0 0 0 31 6 41.7 41.7 0 0 0-1 7c.06 2.14.72 3.806 2 5 .96 2.625 2.12 2.625 3.5 0 .49 1.293.66 2.627.5 4 5.59.081 10.93 1.081 16 3v11c-5.75.605-11.08-.562-16-3.5a160 160 0 0 1-21-4.5q-.166-.925-1-1.5a25 25 0 0 0-7-.5q-2.022-1.029-3.5-3 .14-6.199-2.5-11l-3-2a4.93 4.93 0 0 0 3-.5 12.8 12.8 0 0 1-6-3 4.46 4.46 0 0 0 2-1.5q-2.661-5.024 3-5"/><path style="opacity:1" fill="#a34d3a" d="M615.5 731.5q6.538 1.725 13 0-1.739 2.625-5 3a46.7 46.7 0 0 1-8-3"/><path style="opacity:1" fill="#70737e" d="M956.5 727.5q1.477 6.202 1 13-1.937.356-3-1 2.884-5.293 2-12"/><path style="opacity:1" fill="#f8e3ef" d="M928.5 726.5q1.083.626 1.5 2 .75 9.487.5 19v108h-1q-1.435-.429-1 4.5-.164 4.05 1.5 7.5.75 45.998.5 92a12.9 12.9 0 0 0 5-.5 1967 1967 0 0 0 53-28 156 156 0 0 1 10-3.5v-3a120 120 0 0 1-14-5.5q-3.29-3.037-3-7.5 9.991-.996 18-7c.67 28.164 1.33 56.164 2 84v35h-39q12.4-6.705 25-13.5c3.166-1.56 6.5-2.39 10-2.5 1.333-2.33 1.333-4.67 0-7q-12.075-2.536-22-10a122.7 122.7 0 0 1-21.5-9 524 524 0 0 0-19.5 9.5q-3.465.745-7 .5.255 1.983-1 3.5a2313 2313 0 0 0-24 12c-2.31.5-4.643.66-7 .5v3c-1.56.02-3.06.35-4.5 1q-10.381 6.165-20.5 12h-109q-.5-106.504 1-213l53-26.5 7-1q3.647-3.823 9-4.5.091-3.138 3-4.5 43.6-21.302 87-42.5a215 215 0 0 1 7-5"/><path style="opacity:1" fill="#907f67" d="M978.5 733.5q3.535-.245 7 .5.834.575 1 1.5-4.493.31-8-2"/><path style="opacity:1" fill="#635e9d" d="M563.5 730.5q1.602 1.401 4 1a90.8 90.8 0 0 0 18 5.5 74 74 0 0 0 12 1.5v1q-1.475 5.697-1 12-5.83-.22-11-2l-22-5.5q-1.985-6.9 0-13.5"/><path style="opacity:1" fill="#879b7a" d="M20.5 735.5q8.918 1.57 17 5-9.28-.441-17-5"/><path style="opacity:1" fill="#667a5b" d="M476.5 738.5q7.964.864 15 4-7.959-.83-15-4"/><path style="opacity:1" fill="#645e9b" d="M974.5 733.5h4q3.507 2.31 8 2a160 160 0 0 0 21 4.5c4.92 2.938 10.25 4.105 16 3.5v14a1852 1852 0 0 0-44-11 20.7 20.7 0 0 0-5-1z"/><path style="opacity:1" fill="#6a8642" d="M99.5 735.5v20q-8.511.984-15-4a40.6 40.6 0 0 0 14 3q-.485-9.783 1-19"/><path style="opacity:1" fill="#2b3247" d="M597.5 739.5q-.455 13.127 1 26a201 201 0 0 0-20-4.5l-3-2.5 5-8q2.318-1.428 5-1 5.17 1.78 11 2-.475-6.303 1-12"/><path style="opacity:1" fill="#6c6897" d="M-.5 745.5a2262 2262 0 0 1 109 27 9.86 9.86 0 0 0 1-6q1 0 1 1a85 85 0 0 0 .5 13 185 185 0 0 1 15.5 5q.91-.186 1-1a204 204 0 0 0 7-10.5 11.6 11.6 0 0 1 7 .5v26q-1.452-3.161-1-7a99.6 99.6 0 0 1-15-3l-4-1a91.4 91.4 0 0 0-18-4q-.166-.925-1-1.5a305 305 0 0 1-13-2 4373 4373 0 0 0-90-23.5z"/><path style="opacity:1" fill="#8d89bd" d="M-.5 730.5a369 369 0 0 0 21 5q7.72 4.559 17 5 23.39 5.375 47 11 6.489 4.984 15 4a41 41 0 0 0 .5 9 34.5 34.5 0 0 0 9.5 2 9.86 9.86 0 0 1-1 6 2262 2262 0 0 0-109-27z"/><path style="opacity:1" fill="#707fa0" d="M930.5 747.5a106.3 106.3 0 0 1 20 4 21.9 21.9 0 0 1-4.5 8 106 106 0 0 0-15.5-4z"/><path style="opacity:1" fill="#6f8658" d="M543.5 755.5q8.47 1.325 16 5-8.5-1.335-16-5"/><path style="opacity:1" fill="#4c5469" d="M950.5 751.5a116.3 116.3 0 0 0 19 5 535 535 0 0 1 52 14q-4.35 5.348-6 12c2.72.463 5.39 1.129 8 2v94a80 80 0 0 0-11-2c-1.91.284-3.58-.049-5-1-3.58-2.229-7.583-3.229-12-3a289 289 0 0 0-36-9q-2.403-2.361-6-2a27.6 27.6 0 0 0-10-2q-6.176-2.556-13-4v-100q7.76 1.378 15.5 4a21.9 21.9 0 0 0 4.5-8"/><path style="opacity:1" fill="#627658" d="M559.5 760.5a171 171 0 0 1 25 4.5q2.428.354 3 2.5a343 343 0 0 1-28-7"/><path style="opacity:1" fill="#2a3046" d="M-.5 758.5a4373 4373 0 0 1 90 23.5q6.478 1.14 13 2 .834.575 1 1.5a71 71 0 0 1-6 11l-98-25z"/><path style="opacity:1" fill="#4c5469" d="m-.5 771.5 98 25q-2.214 6.489-6.5 12-1.638 8.151-5.5 15a1026 1026 0 0 1-73-19 110 110 0 0 0-13-2z"/><path style="opacity:1" fill="#2a3146" d="M979.5 746.5a1852 1852 0 0 1 44 11v27a54 54 0 0 0-8-2q1.65-6.652 6-12a535 535 0 0 0-52-14h6a8.4 8.4 0 0 1 .5-4 30 30 0 0 0 3.5-6"/><path style="opacity:1" fill="#411015" d="M110.5 767.5a122 122 0 0 0 17 4q1.839 6.483 0 13-.09.814-1 1a185 185 0 0 0-15.5-5 85 85 0 0 1-.5-13"/><path style="opacity:1" fill="#9ac148" d="M198.5 759.5h-3a145 145 0 0 1-.5 17 4.46 4.46 0 0 0-1.5 2 31.1 31.1 0 0 0 11 1q-.1 2.188 1 4a18.5 18.5 0 0 1-6-.5 56 56 0 0 1-8-3.5q.24-2.48 2-4 1.483-8.213 1-17 2.398-.401 4 1"/><path style="opacity:1" fill="#961c2b" d="M141.5 774.5q2.855.444 5 2 .384 5.654-1 11h-4z"/><path style="opacity:1" fill="#a5d482" d="M611.5 773.5q2.188-.1 4 1v71q.257 1.487-1 2 .25-35.504-.5-71-1.047-1.787-2.5-3"/><path style="opacity:1" fill="#420f14" d="M146.5 776.5a2013 2013 0 0 0 16 5 31.1 31.1 0 0 1 1 11q-1.602 1.401-4 1h-1a206 206 0 0 1-11-3.5q-1.321-1.062-2-2.5 1.384-5.346 1-11"/><path style="opacity:1" fill="#8da866" d="M229.5 789.5a93 93 0 0 0 15 2.5q2.35.912 4 2.5a67.4 67.4 0 0 0-14-2.5 39 39 0 0 1-5-2.5"/><path style="opacity:1" fill="#d4d4e6" d="M141.5 787.5h4q.679 1.438 2 2.5a206 206 0 0 0 11 3.5v11a309 309 0 0 1-17-3z"/><path style="opacity:1" fill="#5b5c8a" d="M158.5 793.5h1q1.064 1.356 3 1v3a33 33 0 0 1-3 7h-1z"/><path style="opacity:1" fill="#221018" d="m121.5 789.5 4 1q1.088 3.483-1 7a228 228 0 0 0-12.5 23 37.7 37.7 0 0 0-2.5 8h-4q-1.936.356-3-1a728 728 0 0 1 19-38"/><path style="opacity:1" fill="#3a0e14" d="M164.5 820.5a67 67 0 0 0-5 7v-23a33 33 0 0 0 3-7q.925-.166 1.5-1 .75 11.99.5 24"/><path style="opacity:1" fill="#7c3d42" d="M103.5 785.5a91.4 91.4 0 0 1 18 4 728 728 0 0 0-19 38 321 321 0 0 1-17-4q3.862-6.849 5.5-15 4.286-5.511 6.5-12a71 71 0 0 0 6-11"/><path style="opacity:1" fill="#2a3045" d="M166.5 788.5a52.4 52.4 0 0 0-1 13 6815 6815 0 0 1 79 20 40 40 0 0 0-2.5 8q-.625 1.884-2.5 2-6.09.023-12-1.5a2024 2024 0 0 1-62-15.5q.442 3.352-1 6 .25-12.01-.5-24-.575.834-1.5 1v-3q-1.936.356-3-1 2.398.401 4-1a9.8 9.8 0 0 1 3-4"/><path style="opacity:1" fill="#4c5469" d="M239.5 831.5a37.7 37.7 0 0 1-2.5 8 113.5 113.5 0 0 0-9.5 18.5q.834 1.516 2 2.5a2603 2603 0 0 1-54-13.5 49 49 0 0 1-9-3.5 49.9 49.9 0 0 0-1 14q.356 1.937-1 3 .25-12.01-.5-24a75 75 0 0 1-4.5 7v-4q3.681-5.287 5-12l-1-2q-.713 3.983-4 6v-4a67 67 0 0 1 5-7q1.442-2.648 1-6a2024 2024 0 0 0 62 15.5 47.2 47.2 0 0 0 12 1.5"/><path style="opacity:1" fill="#971e30" d="M141.5 801.5a309 309 0 0 0 17 3h1v27a672 672 0 0 1-18-4z"/><path style="opacity:1" fill="#6c6898" d="M-.5 815.5a13796 13796 0 0 0 141 36v13a1394 1394 0 0 1-46-11l-6-1a16.6 16.6 0 0 0-4-2.5 77 77 0 0 1-11-1.5 513 513 0 0 1-4 3 5.6 5.6 0 0 1 1-3 1407 1407 0 0 0-71-19z"/><path style="opacity:1" fill="#4c5469" d="M141.5 802.5v24q-1.473 5.193-1 11-11.537-1.695-22-6h3a426 426 0 0 1 12-25q3.327-.836 7 0-.401-2.398 1-4"/><path style="opacity:1" fill="#2b3045" d="M125.5 790.5a99.6 99.6 0 0 0 15 3q-.452 3.839 1 7v2q-1.401 1.602-1 4-3.673-.836-7 0a426 426 0 0 0-12 25h-3a114 114 0 0 1-13-3h4a37.7 37.7 0 0 1 2.5-8 228 228 0 0 1 12.5-23q2.088-3.517 1-7"/><path style="opacity:1" fill="#839584" d="M375.5 827.5q4.392.098 8 2-4.493.31-8-2"/><path style="opacity:1" fill="#fd765f" d="M692.5 835.5q5.023 3.35 11 5a101 101 0 0 0 8.5 4q.75 29.995.5 60h-1q.5-29.017-1-58a276 276 0 0 0-20 9.5q-2.909 1.362-3 4.5a263 263 0 0 1-12 3.5 794 794 0 0 1-28 15 12.9 12.9 0 0 1-5 .5q-.5 29.517 1 59a200 200 0 0 1 6-3q-2.722 4.361-8 4v-60a25 25 0 0 1-7-.5 115 115 0 0 0-13-6 59.2 59.2 0 0 0-13-6.5q-1.329-1.238-1-3-6.548-.27-12-4 1.26-1.852 3-3a93 93 0 0 1 16-9q1.257-.513 1-2a52.2 52.2 0 0 0 12-4.5 6730 6730 0 0 1 36.5-18.5 221 221 0 0 0 28.5 13"/><path style="opacity:1" fill="#8e8abd" d="M-.5 802.5q6.546.608 13 2a1026 1026 0 0 0 73 19 321 321 0 0 0 17 4q1.064 1.356 3 1a114 114 0 0 0 13 3q10.463 4.305 22 6-.473-5.807 1-11v14q2.398-.401 4 1h-4q-1.469 4.687-1 10a13796 13796 0 0 1-141-36z"/><path style="opacity:1" fill="#4e59a5" d="M159.5 839.5v-8q3.287-2.017 4-6l1 2q-1.319 6.713-5 12"/><path style="opacity:1" fill="#7c3c40" d="M244.5 821.5a75 75 0 0 1 18 5 1662 1662 0 0 1-18 37h-1a59.4 59.4 0 0 1-14-3q-1.166-.984-2-2.5a113.5 113.5 0 0 1 9.5-18.5 37.7 37.7 0 0 0 2.5-8q1.875-.116 2.5-2a40 40 0 0 1 2.5-8"/><path style="opacity:1" fill="#86815a" d="M394.5 831.5q9.246.444 17 5a436 436 0 0 0-16-3.5q-.834-.575-1-1.5"/><path style="opacity:1" fill="#fcbaa9" d="M692.5 835.5q6.302 1.085 11 5-5.977-1.65-11-5"/><path style="opacity:1" fill="#d4d8e8" d="M141.5 827.5a672 672 0 0 0 18 4v14l-14-4q-1.602-1.401-4-1z"/><path style="opacity:1" fill="#859486" d="M422.5 839.5q6.303.948 12 3-6.723.699-12-3"/><path style="opacity:1" fill="#2a3046" d="M-.5 829.5a1407 1407 0 0 1 71 19 5.6 5.6 0 0 0-1 3q-.24 2.48-2 4-2.11.71-2 3a872 872 0 0 1-66-17z"/><path style="opacity:1" fill="#4c5469" d="M-.5 841.5a872 872 0 0 0 66 17v15a127 127 0 0 0 17 3q5.81 4.016 13 3.5a155 155 0 0 0 5.5-10.5 4.93 4.93 0 0 1 2.5-1 574 574 0 0 0 37 10v-11h1v13a170 170 0 0 0 1 26q8.286 3.691 17 5a1337 1337 0 0 0 83 21 60 60 0 0 0-4.5 13 244 244 0 0 0 14.5 4 8761 8761 0 0 1-5 14 171.7 171.7 0 0 1 30 7.5 782 782 0 0 1 48 11.5 35.4 35.4 0 0 1 5-11.5q8.563-.05 16.5 3.5 2.566.091 4-2 .975-5.197 4.5-9-3.296-3.027-8-3.5-1.752-7.29 4-12.5a80 80 0 0 1 11 2q7.161 2.542 15 4l2-1a32.5 32.5 0 0 1 4-10l3-1a5064 5064 0 0 0 104 26 113 113 0 0 0 .5 15 97 97 0 0 1 6.5 2 210 210 0 0 0 17 4.5q3 1 6 0a41.4 41.4 0 0 0 4.5-9.5 6.3 6.3 0 0 1 3-1 1819 1819 0 0 1 86.5 21v24h-356a180 180 0 0 0-9-3.5 527 527 0 0 1-44-10.5c-1.602-1.57-3.602-2.24-6-2v-3a97 97 0 0 1-16-1c-2.995.21-5.662-.46-8-2q-5.697-2.054-12-3a3196 3196 0 0 0-108-27q-11.7-4.062-24-7a425 425 0 0 0-23-5q.129-1.494-1-2.5a32.5 32.5 0 0 0-8-.5z"/><path style="opacity:1" fill="#4c546a" d="M380.5 868.5q-3.05 6.126-4.5 13a66 66 0 0 1-5 8 8.4 8.4 0 0 0-.5 4q-2.518-.322-3 2a3193 3193 0 0 1-108-27h4q.035-3.64 1.5-7a63.5 63.5 0 0 0 9.5-19q53.025 13.002 106 26"/><path style="opacity:1" fill="#991d2f" d="M141.5 841.5h4l14 4v23q.356 1.937-1 3-7.868-1.263-15-4-2.888-12.599-2-26"/><path style="opacity:1" fill="#957388" d="M808.5 844.5q-.96 15.087 2 29-1.063 1.356-3 1-.49-15.272 1-30"/><path style="opacity:1" fill="#330420" d="M810.5 873.5q-2.96-13.913-2-29l24-11a226 226 0 0 1 1 30 117 117 0 0 0-23 10"/><path style="opacity:1" fill="#211119" d="m262.5 826.5 6 1q-2.103 9.554-8.5 17l-1 5a44.3 44.3 0 0 0-8 14q-3.245 1.902-6.5 0a1662 1662 0 0 0 18-37"/><path style="opacity:1" fill="#8baa5e" d="M457.5 847.5q7.092.579 13 4a227 227 0 0 1-12-2.5q-.834-.575-1-1.5"/><path style="opacity:1" fill="#fd4b50" d="M711.5 904.5a697 697 0 0 0-29 16.5q-5.863.949-11 3.5v3q-5.962-.963-10 3-5.236 4.112-12 5a200 200 0 0 0-6 3 871 871 0 0 1-1-59 12.9 12.9 0 0 0 5-.5 794 794 0 0 0 28-15 263 263 0 0 0 12-3.5q.091-3.138 3-4.5a276 276 0 0 1 20-9.5q1.5 28.983 1 58"/><path style="opacity:1" fill="#7d3c41" d="M88.5 852.5a58.6 58.6 0 0 1-6 11 589 589 0 0 1-16-2 19.2 19.2 0 0 1 1-6q1.76-1.52 2-4a513 513 0 0 0 4-3 77 77 0 0 0 11 1.5 16.6 16.6 0 0 1 4 2.5"/><path style="opacity:1" fill="#859b7d" d="M485.5 855.5q5.493.334 10 3-5.637.158-10-3"/><path style="opacity:1" fill="#2a3045" d="M268.5 827.5a3298 3298 0 0 0 91 22.5q13.347 5.369 27 8.5-2.757 4.008-3.5 9-1.006 1.128-2.5 1-52.975-12.998-106-26a63.5 63.5 0 0 1-9.5 19 17.8 17.8 0 0 0-1.5 7h-4q-6.947-3.324-15-3.5-.834-.575-1-1.5h1q3.255 1.902 6.5 0a44.3 44.3 0 0 1 8-14l1-5q6.397-7.446 8.5-17"/><path style="opacity:1" fill="#370f14" d="M164.5 860.5a34.4 34.4 0 0 0-5 8v-25a75 75 0 0 0 4.5-7q.75 11.99.5 24"/><path style="opacity:1" fill="#845472" d="M141.5 841.5q-.888 13.401 2 26h-3v-16q-.469-5.313 1-10"/><path style="opacity:1" fill="#89a566" d="M502.5 859.5q7.44 1.074 14 4-7.56-.525-14-4"/><path style="opacity:1" fill="#2a3045" d="M94.5 853.5a1394 1394 0 0 0 46 11v14a574 574 0 0 1-37-10 4.93 4.93 0 0 0-2.5 1 155 155 0 0 1-5.5 10.5q-7.19.516-13-3.5 1.314.197 2-1a430 430 0 0 1 10-22"/><path style="opacity:1" fill="#7b9160" d="M953.5 861.5q3.597-.361 6 2-3.597.361-6-2"/><path style="opacity:1" fill="#6c6898" d="M168.5 785.5v3a26557 26557 0 0 0 274 69.5 5599 5599 0 0 1 103 28 3417 3417 0 0 0 46 10.5v-13h2v33q-1.442-2.648-1-6a454 454 0 0 1-40-10 19.2 19.2 0 0 0-6-1q-3.124-2.21-7-3.5a61 61 0 0 0-11-.5q-.166-.925-1-1.5a14949 14949 0 0 1-117-30.5h-1a39 39 0 0 0-5-2.5 486 486 0 0 0-18-2.5q-13.653-3.131-27-8.5a3298 3298 0 0 1-91-22.5l-6-1a75 75 0 0 0-18-5 6815 6815 0 0 0-79-20 52.4 52.4 0 0 1 1-13q-.11-2.29 2-3"/><path style="opacity:1" fill="#a6cd7a" d="M929.5 855.5h1q6.824 1.444 13 4a116 116 0 0 1-12-2q-2.204 8.9 6 12-5.135.558-7.5-4a50.5 50.5 0 0 1-.5-10"/><path style="opacity:1" fill="#24121a" d="m88.5 852.5 6 1a430 430 0 0 0-10 22q-.686 1.197-2 1v-13a58.6 58.6 0 0 0 6-11"/><path style="opacity:1" fill="#8ea759" d="M518.5 863.5a1569 1569 0 0 0 28 5.5q2.987.56 5 2.5a273 273 0 0 1-29-5.5q-2.73-.3-4-2.5"/><path style="opacity:1" fill="#fe8f65" d="M598.5 856.5q-1.74 1.148-3 3 5.452 3.73 12 4-.329 1.762 1 3a59.2 59.2 0 0 1 13 6.5 115 115 0 0 1 13 6q3.465.745 7 .5v60a8.4 8.4 0 0 1-4-.5q-10.063-6.875-21-11.5-8.45-5.628-18-10.5a12.9 12.9 0 0 0-5-.5v-58q1.703-2.57 5-2"/><path style="opacity:1" fill="#582a2c" d="M67.5 855.5a19.2 19.2 0 0 0-1 6q7.98 1.109 16 2v13a127 127 0 0 1-17-3v-15q-.11-2.29 2-3"/><path style="opacity:1" fill="#8d89bc" d="M191.5 779.5a56 56 0 0 0 8 3.5q2.96.743 6 .5a776 776 0 0 0 24 6 39 39 0 0 0 5 2.5q7.19.52 14 2.5a2167 2167 0 0 0 110 27.5 257 257 0 0 0 17 5.5q3.507 2.31 8 2 5.063 2.373 11 2 .166.925 1 1.5a436 436 0 0 1 16 3.5q5.904.35 11 3 5.277 3.699 12 3a114.5 114.5 0 0 0 23 5q.166.925 1 1.5 5.991 1.417 12 2.5a119 119 0 0 0 15 4q4.363 3.158 10 3 3.541.26 7 1 6.44 3.475 14 4h2q1.27 2.2 4 2.5a273 273 0 0 0 29 5.5q13.912 5.606 29 8 .166.925 1 1.5a135 135 0 0 1 10 2.5v13a3417 3417 0 0 1-46-10.5 5599 5599 0 0 0-103-28 26557 26557 0 0 1-274-69.5v-3q-.123-2.628 2.5-3a233 233 0 0 1 17.5 4q.078-4.27 3-7"/><path style="opacity:1" fill="#fdfdfc" d="M929.5 855.5q-.247 5.025.5 10 2.365 4.558 7.5 4 11.185 8.592 25 12.5a13.97 13.97 0 0 1 6 5q16.707 7.86 33 15.5v86c-.67-27.836-1.33-55.836-2-84q-8.009 6.004-18 7-.29 4.463 3 7.5a120 120 0 0 0 14 5.5v3a156 156 0 0 0-10 3.5 1967 1967 0 0 1-53 28 12.9 12.9 0 0 1-5 .5q.25-46.002-.5-92-1.664-3.45-1.5-7.5-.435-4.929 1-4.5"/><path style="opacity:1" fill="#221018" d="M409.5 863.5h1a453 453 0 0 1-18 36 15.4 15.4 0 0 1-7 1v-1a894 894 0 0 1 19-35q2.318-1.428 5-1"/><path style="opacity:1" fill="#9fd242" d="M943.5 859.5q5.203.07 10 2 2.403 2.361 6 2a289 289 0 0 1 36 9q5.94 1.495 12 3c1.42.951 3.09 1.284 5 1 3.3 1.983 6.97 2.983 11 3v114q-5.67-2.241-12-2c-2.53-1.698-5.37-3.031-8.5-4q-.255-42.754-1.5-85a28191 28191 0 0 1-33-15.5 13.97 13.97 0 0 0-6-5q-13.815-3.908-25-12.5-8.204-3.1-6-12a116 116 0 0 0 12 2"/><path style="opacity:1" fill="#6a7e5c" d="M995.5 872.5c4.417-.229 8.42.771 12 3q-6.06-1.505-12-3"/><path style="opacity:1" fill="#d6d7ea" d="M141.5 867.5h2q7.132 2.737 15 4v13a45.4 45.4 0 0 1-17-4z"/><path style="opacity:1" fill="#72875f" d="M1012.5 876.5c3.72.411 7.39 1.078 11 2v1c-4.03-.017-7.7-1.017-11-3"/><path style="opacity:1" fill="#9da973" d="M593.5 858.5v25h-2a135 135 0 0 0-10-2.5q-.834-.575-1-1.5a116 116 0 0 0 12 2q-.488-11.778 1-23"/><path style="opacity:1" fill="#7b3d42" d="M386.5 858.5a486 486 0 0 1 18 2.5 39 39 0 0 1 5 2.5q-2.682-.428-5 1a894 894 0 0 0-19 35q-9.625-.158-18-4 .482-2.322 3-2a8.4 8.4 0 0 1 .5-4 66 66 0 0 0 5-8q1.45-6.874 4.5-13 1.494.128 2.5-1 .743-4.992 3.5-9"/><path style="opacity:1" fill="#4c5469" d="M523.5 904.5a8.4 8.4 0 0 1-.5 4q-8.835 10.566-11.5 24a396.6 396.6 0 0 1-60-15.5 2737 2737 0 0 0-50.5-11.5q-2.522-.162-3.5-2 3.459.74 7 1a147 147 0 0 1 9.5-21q1.87-3.277 5.5-4a285 285 0 0 0 18 3.5 3142 3142 0 0 0 83.5 22.5 11 11 0 0 0 2.5-1"/><path style="opacity:1" fill="#3c0e13" d="M164.5 875.5q.984 1.683 1 4a419 419 0 0 0-1.5 21q-.774 4.57-4.5 7v-23a59 59 0 0 1 5-9"/><path style="opacity:1" fill="#2a3046" d="M410.5 863.5a14949 14949 0 0 0 117 30.5q.834.575 1 1.5a112 112 0 0 0-5 9q-1.147.635-2.5 1a3142 3142 0 0 1-83.5-22.5 285 285 0 0 1-18-3.5q-3.63.723-5.5 4a147 147 0 0 0-9.5 21 52 52 0 0 1-7-1q-6.561-.003-12-3 3.63.312 7-1a453 453 0 0 0 18-36"/><path style="opacity:1" fill="#9c182d" d="M141.5 880.5a45.4 45.4 0 0 0 17 4h1v27q-8.714-1.309-17-5a170 170 0 0 1-1-26"/><path style="opacity:1" fill="#7d3c41" d="M213.5 885.5q9.148-.141 17 4a2561 2561 0 0 0-6 11 63.2 63.2 0 0 1-17-4v-1a37.8 37.8 0 0 1 6-10"/><path style="opacity:1" fill="#7c3c41" d="M528.5 895.5a61 61 0 0 1 11 .5q3.876 1.29 7 3.5a1588 1588 0 0 1-19 37q-8.377-1.095-16-4 2.665-13.434 11.5-24a8.4 8.4 0 0 0 .5-4 112 112 0 0 1 5-9"/><path style="opacity:1" fill="#4c5469" d="M349.5 930.5v15a400 400 0 0 1-54-13.5 2064 2064 0 0 0-55-13q-2.52-.52-3-3a61 61 0 0 1 5-9.5l3.5-1q50.65 12.79 101.5 26 1.025-.544 2-1"/><path style="opacity:1" fill="#2a3146" d="M552.5 900.5a454 454 0 0 0 40 10q-.442 3.352 1 6a140 140 0 0 0 20 10l1 2a1573 1573 0 0 1-53.5-13q-3.48 1.408-5 5a271 271 0 0 0-9.5 20h-5q-6.888-.573-13-3a9.86 9.86 0 0 0 6-1 1614 1614 0 0 1 18-36"/><path style="opacity:1" fill="#4c546a" d="M614.5 928.5a241 241 0 0 1-1 31 1697 1697 0 0 1-72-19h5a271 271 0 0 1 9.5-20q1.52-3.592 5-5a1573 1573 0 0 0 53.5 13"/><path style="opacity:1" fill="#bd8878" d="M593.5 916.5a12.9 12.9 0 0 1 5 .5q9.55 4.872 18 10.5h-1q-.513-1.258-2-1a140 140 0 0 1-20-10"/><path style="opacity:1" fill="#2a3046" d="M213.5 885.5a37.8 37.8 0 0 0-6 10 2320 2320 0 0 1-41-11 57.2 57.2 0 0 0-1 15 701 701 0 0 0 42 10q7.362 2.82 16 3v-9q1.226 3.703 1.5 8l3-3a112 112 0 0 1 8.5-17 44 44 0 0 1-1-2 3158 3158 0 0 1 118 31q.048 3.864-2 7-1.352 1.185-2 3-.975.456-2 1-50.85-13.21-101.5-26l-3.5 1a61 61 0 0 0-5 9.5q.48 2.48 3 3a2064 2064 0 0 1 55 13 400 400 0 0 0 54 13.5q1.5.5 2 2-5.752 5.21-4 12.5 4.704.473 8 3.5-3.525 3.803-4.5 9-1.434 2.091-4 2-7.937-3.55-16.5-3.5a35.4 35.4 0 0 0-5 11.5 782 782 0 0 0-48-11.5 171.7 171.7 0 0 0-30-7.5q2.515-7.023 5-14a244 244 0 0 1-14.5-4 60 60 0 0 1 4.5-13 1337 1337 0 0 1-83-21v-4q3.726-2.43 4.5-7 .486-10.521 1.5-21-.016-2.317-1-4v-4a1303 1303 0 0 1 48 12.5q.834.575 1 1.5"/><path style="opacity:1" fill="#572b2e" d="M207.5 896.5a63.2 63.2 0 0 0 17 4 5.73 5.73 0 0 1-1 3v9q-8.638-.18-16-3z"/><path style="opacity:1" fill="#20111a" d="M230.5 889.5h5q.456.975 1 2a112 112 0 0 0-8.5 17l-3 3q-.274-4.297-1.5-8a5.73 5.73 0 0 0 1-3q3.007-5.546 6-11"/><path style="opacity:1" fill="#4b5469" d="M207.5 895.5v14a701 701 0 0 1-42-10 57.2 57.2 0 0 1 1-15 2320 2320 0 0 0 41 11"/><path style="opacity:1" fill="#f82175" d="M711.5 904.5h1q.5 29.017-1 58-22.045 11.522-44 23h-3v-55h-3q4.038-3.963 10-3v-3q5.137-2.551 11-3.5a697 697 0 0 1 29-16.5"/><path style="opacity:1" fill="#7b3b40" d="M353.5 920.5a474 474 0 0 0 19 5l-5 10q-1.374.723-3 1a51 51 0 0 0-14-2 52 52 0 0 0 1-7q2.048-3.136 2-7"/><path style="opacity:1" fill="#6b6898" d="M165.5 857.5a145 145 0 0 1 12 4.5 16305 16305 0 0 1 318 82 4996 4996 0 0 1 117 29q2.86 6.778 2 14.5a4848 4848 0 0 1-94-24q-2.908-2.494-7-2a137 137 0 0 0-11-3.5 25 25 0 0 0-7-.5 2513 2513 0 0 1-24-7.5 10985 10985 0 0 1-93-23.5l-6-1a474 474 0 0 1-19-5 3158 3158 0 0 0-118-31h-5q-7.852-4.141-17-4-.166-.925-1-1.5a1303 1303 0 0 0-48-12.5v4a59 59 0 0 0-5 9h-1v-13q1.356-1.063 1-3a34.4 34.4 0 0 1 5-8q1.356-1.063 1-3"/><path style="opacity:1" fill="#221019" d="M546.5 899.5a19.2 19.2 0 0 1 6 1 1614 1614 0 0 0-18 36 9.86 9.86 0 0 1-6 1q-1 0-1-1a1588 1588 0 0 0 19-37"/><path style="opacity:1" fill="#8d89bd" d="M229.5 860.5a59.4 59.4 0 0 0 14 3q.166.925 1 1.5 8.053.176 15 3.5a3193 3193 0 0 0 108 27q8.375 3.842 18 4v1q5.439 2.997 12 3 .978 1.838 3.5 2a2737 2737 0 0 1 50.5 11.5 396.6 396.6 0 0 0 60 15.5q7.623 2.905 16 4 0 1 1 1 6.112 2.427 13 3a1697 1697 0 0 0 72 19 241 241 0 0 0 1-31l-1-2q1.487-.258 2 1v96h-1v-36q.86-7.722-2-14.5a4996 4996 0 0 0-117-29 16305 16305 0 0 0-318-82 145 145 0 0 0-12-4.5 49.9 49.9 0 0 1 1-14 49 49 0 0 0 9 3.5 2603 2603 0 0 0 54 13.5"/><path style="opacity:1" fill="#fd62a5" d="M615.5 927.5h1q10.937 4.625 21 11.5a8.4 8.4 0 0 0 4 .5q5.278.361 8-4 6.764-.888 12-5h3v55h3q-2.682 1.683-6 .5a434 434 0 0 0-23.5-12.5 396 396 0 0 0-22.5-9z"/><path style="opacity:1" fill="#200f18" d="m372.5 925.5 6 1a143 143 0 0 1-11 21v-12z"/><path style="opacity:1" fill="#abcc87" d="M1001.5 902.5q1.245 42.246 1.5 85c3.13.969 5.97 2.302 8.5 4a54 54 0 0 0-10-2z"/><path style="opacity:1" fill="#55292c" d="M351.5 927.5a52 52 0 0 1-1 7 51 51 0 0 1 14 2 10 10 0 0 0 3-1v12q-1.578 2.634-5 2a80 80 0 0 0-11-2q-.5-1.5-2-2v-15q.648-1.815 2-3"/><path style="opacity:1" fill="#2a3046" d="M378.5 926.5a10985 10985 0 0 0 93 23.5 2513 2513 0 0 0 24 7.5q.15 3.912-2 7-2.1.9-3 3a5064 5064 0 0 1-104-26l-3 1a32.5 32.5 0 0 0-4 10l-2 1q-7.839-1.458-15-4 3.422.634 5-2a143 143 0 0 0 11-21"/><path style="opacity:1" fill="#627159" d="M-.5 957.5v-1a32.5 32.5 0 0 1 8 .5q1.129 1.006 1 2.5a57.4 57.4 0 0 0-9-2"/><path style="opacity:1" fill="#7c3d42" d="M495.5 957.5q3.535-.245 7 .5a137 137 0 0 1 11 3.5 85.4 85.4 0 0 1-5 12q-9.054-.393-17-4.5a9.2 9.2 0 0 0 2-4.5q2.15-3.088 2-7"/><path style="opacity:1" fill="#96b758" d="M31.5 964.5q12.3 2.938 24 7a578 578 0 0 1-19-3.5 316 316 0 0 1-5-3.5"/><path style="opacity:1" fill="#a9d44d" d="M-.5 957.5a57.4 57.4 0 0 1 9 2 425 425 0 0 1 23 5q2.4 1.716 5 3.5a578 578 0 0 0 19 3.5 3196 3196 0 0 1 108 27q5.277 3.705 12 3c2.338 1.54 5.005 2.21 8 2 4.797 3.04 10.13 4.37 16 4 1.602 1.57 3.602 2.24 6 2a527 527 0 0 0 44 10.5 180 180 0 0 1 9 3.5H-.5z"/><path style="opacity:1" fill="#231219" d="M513.5 961.5q4.092-.494 7 2-5.976 10.948-12 22v-12a85.4 85.4 0 0 0 5-12"/><path style="opacity:1" fill="#2a3046" d="M520.5 963.5a4848 4848 0 0 0 94 24v12a1819 1819 0 0 0-86.5-21 6.3 6.3 0 0 0-3 1 41.4 41.4 0 0 1-4.5 9.5q-3 1-6 0a210 210 0 0 1-17-4.5q5.481.663 11 1 6.024-11.052 12-22"/><path style="opacity:1" fill="#562b2f" d="M493.5 964.5a9.2 9.2 0 0 1-2 4.5q7.946 4.107 17 4.5v12a185 185 0 0 1-11-1 97 97 0 0 0-6.5-2 113 113 0 0 1-.5-15q.9-2.1 3-3"/><path style="opacity:1" fill="#fefefe" d="M962.5 1023.5h-92q10.119-5.835 20.5-12c1.44-.65 2.94-.98 4.5-1v-3c2.357.16 4.69 0 7-.5 8.048-4.08 16.048-8.084 24-12q1.255-1.517 1-3.5 3.535.245 7-.5a524 524 0 0 1 19.5-9.5 122.7 122.7 0 0 0 21.5 9q9.925 7.464 22 10c1.333 2.33 1.333 4.67 0 7-3.5.11-6.834.94-10 2.5q-12.6 6.795-25 13.5"/><path style="opacity:1" fill="#72865c" d="M163.5 998.5q6.303.946 12 3-6.723.705-12-3"/><path style="opacity:1" fill="#8f8cbd" d="M1001.5 989.5c3.4.351 6.74 1.018 10 2q6.33-.241 12 2v14a480 480 0 0 0-21-4c.32 4.2-.02 8.2-1 12z"/><path style="opacity:1" fill="#59635c" d="M183.5 1003.5a97 97 0 0 0 16 1v3c-5.87.37-11.203-.96-16-4"/><path style="opacity:1" fill="#6b6999" d="M1023.5 1007.5v13c-6.97-.19-13.63-1.53-20-4-.97 2.24-1.31 4.58-1 7h-1v-8c.98-3.8 1.32-7.8 1-12a480 480 0 0 1 21 4"/><path style="opacity:1" fill="#687d56" d="M199.5 1007.5c2.398-.24 4.398.43 6 2-2.398.24-4.398-.43-6-2"/><path style="opacity:1" fill="#282f44" d="M1023.5 1020.5v3h-21c-.31-2.42.03-4.76 1-7 6.37 2.47 13.03 3.81 20 4"/></svg>
